<svg width="24" height="24" viewBox="0 0 24 24" fill="none" xmlns="http://www.w3.org/2000/svg">
<path fill-rule="evenodd" clip-rule="evenodd" d="M7.25 8.25V6.75C7.25 5.96332 7.47984 4.79998 8.19135 3.81177C8.9304 2.78532 10.1556 2 12 2C13.8444 2 15.0696 2.78532 15.8087 3.81177C16.5202 4.79998 16.75 5.96332 16.75 6.75V8.25H19V21.25H5V8.25H7.25ZM8.75 6.75C8.75 6.20335 8.92016 5.36668 9.40865 4.68823C9.8696 4.04802 10.6444 3.5 12 3.5C13.3556 3.5 14.1304 4.04802 14.5913 4.68823C15.0798 5.36668 15.25 6.20335 15.25 6.75V8.25H8.75V6.75ZM12.75 14.5493C13.1984 14.29 13.5 13.8052 13.5 13.25C13.5 12.4216 12.8284 11.75 12 11.75C11.1716 11.75 10.5 12.4216 10.5 13.25C10.5 13.8052 10.8016 14.29 11.25 14.5493V17.75H12.75V14.5493Z" fill="#CDCCC6"/>
</svg>
