<svg width="24" height="24" viewBox="0 0 24 24" fill="none" xmlns="http://www.w3.org/2000/svg">
<path fill-rule="evenodd" clip-rule="evenodd" d="M12 3H12.2C14.3 3 15.9 4.7 16 6.8C16 9 14.2 10.9 12 11H11.8C9.69999 11 8 9.3 8 7.2C8 5 9.8 3.1 12 3ZM14 6.8C14 5.8 13.2 5 12.2 5H12.1C11 5.1 10 6.1 10 7.2C10 8.2 10.8 9 11.8 9H11.9C13 8.9 14 7.9 14 6.8Z" fill="black"/>
<path fill-rule="evenodd" clip-rule="evenodd" d="M20.8 16C20.8 16.1 20.825 16.2 20.85 16.3C20.875 16.4 20.9 16.5 20.9 16.6C20.9 16.8 20.9 17 20.8 17.2L22 18.1L21 19.9L19.5 19.5C19.2 19.8 18.8 20 18.4 20.2L18.1 21.7L16 21.8L15.7 20.3C15.3 20.2 14.9 20 14.6 19.7L13.1 20.3L12.1 18.6L13.3 17.5C13.3 17.4 13.275 17.3 13.25 17.2C13.225 17.1 13.2 17 13.2 16.9C13.2 16.7 13.2 16.5 13.3 16.3L12.1 15.4L13.1 13.6L14.6 14C14.9 13.7 15.2999 13.5 15.6999 13.3L16 11.8L18.1 11.7L18.4 13.2C18.8 13.3 19.2 13.5 19.5 13.8L21 13.2L22 14.9L20.8 16ZM14.9 16.9C14.9 18 15.8 18.9 17 18.8C18.2 18.7 19.1 17.8 19.1 16.7C19.1 15.6 18.2 14.7 17 14.8C15.8 14.9 14.9 15.8 14.9 16.9Z" fill="black"/>
<path d="M5.69998 20.4L3 17.8V14.8L9.39999 11.9L10.2 13.7L5 16.1V16.9L6.39999 18.3L9.89999 18.2L10 20.2L5.69998 20.4Z" fill="black"/>
</svg>
