<svg width="16" height="16" viewBox="0 0 16 16" fill="none" xmlns="http://www.w3.org/2000/svg">
<path d="M7.7067 13.34C4.89337 13.34 2.69337 11.1333 2.69337 8.31333C2.69337 5.35333 5.10004 2.82 8.06004 2.66666C8.15337 2.66666 8.25337 2.66 8.3467 2.66C11.16 2.66 13.36 4.86666 13.36 7.68666C13.36 10.6467 10.9534 13.18 7.99337 13.3333C7.90004 13.3333 7.80004 13.34 7.7067 13.34ZM6.6667 9.83333V12.5L9.34004 12.36V9.7H9.2467C9.26004 9.51333 9.5267 9.17333 9.84004 8.78C10.4267 8.06666 10.9667 7.33333 10.9667 6.25333C10.9667 4.62666 9.8867 3.57333 8.2067 3.57333C8.13337 3.57333 8.06004 3.57333 7.9867 3.57333C6.23337 3.66666 5.10004 4.88666 5.10004 6.68666V7.84666L7.5467 7.72V6.68666C7.5467 5.9 7.88004 5.88 8.04004 5.87333H8.0867C8.24004 5.87333 8.4667 5.87333 8.4667 6.34666C8.4667 6.7 8.32004 6.98 7.84004 7.54C7.23337 8.26 6.85337 8.87333 6.82004 9.7V9.83333L6.6667 9.84V9.83333Z" fill="#212322"/>
<path d="M11.02 4.22666C12.04 5.02 12.6867 6.26 12.6867 7.68666C12.6867 9.56666 11.5867 11.2467 10 12.0933V9.64666C10.1134 9.48666 10.2734 9.29333 10.34 9.20666C10.9867 8.42666 11.62 7.55333 11.62 6.24666C11.62 5.46666 11.4134 4.78 11.0134 4.22666M4.8667 4.76666C4.57337 5.31333 4.42004 5.96666 4.42004 6.68666V8.54666L5.82004 8.47333L6.4267 8.44C6.3267 8.67333 6.2467 8.92 6.19337 9.18666L5.9867 9.2V12.3333C4.42004 11.68 3.3467 10.1467 3.3467 8.31333C3.3467 6.94666 3.93337 5.68 4.86004 4.76666M8.33337 1.98666C8.2267 1.98666 8.12004 1.98666 8.01337 1.99333C4.7067 2.17333 2.0267 5 2.0267 8.31333C2.0267 11.6267 4.54004 14.0067 7.7067 14.0067C7.81337 14.0067 7.92004 14.0067 8.0267 14C11.34 13.8267 14.0267 11 14.0267 7.68666C14.0267 4.37333 11.5067 1.99333 8.34004 1.99333L8.33337 1.98666ZM5.7467 7.14V6.68C5.7467 5.28 6.5667 4.31333 8.00004 4.23333C8.0667 4.23333 8.1267 4.23333 8.1867 4.23333C9.5067 4.23333 10.28 5 10.28 6.24666C10.28 7.06 9.91337 7.62 9.3067 8.35333C8.86004 8.90666 8.5867 9.27333 8.5667 9.66L7.47337 9.72C7.50004 9.08666 7.80004 8.6 8.33337 7.97333C8.86004 7.36 9.12004 6.93333 9.12004 6.34666C9.12004 5.63333 8.7267 5.20666 8.07337 5.20666C8.0467 5.20666 8.02004 5.20666 7.99337 5.20666C7.2867 5.24666 6.8667 5.74666 6.8667 6.68666V7.08666L5.75337 7.14666L5.7467 7.14ZM7.32004 11.7933V10.4667L8.66004 10.3933V11.72L7.32004 11.7933Z" fill="#212322"/>
</svg>
