<svg width="32" height="32" viewBox="0 0 32 32" fill="none" xmlns="http://www.w3.org/2000/svg">
<path d="M4.65332 9.73344V12.0001L7.83999 11.8268V25.3601C8.37332 25.8668 8.65332 26.1334 9.18665 26.6401L11.3467 26.5334V6.08011L8.90665 6.21344C8.25332 8.82677 7.22665 9.52011 4.65332 9.73344Z" fill="#212322"/>
<path d="M11.3467 6.08011L8.90665 6.21344C8.25332 8.82677 7.22665 9.52011 4.65332 9.73344V12.0001L7.83999 11.8268V25.3601C8.37332 25.8668 8.65332 26.1334 9.18665 26.6401L11.3467 26.5334V6.08011Z" fill="#212322"/>
<path d="M25.3333 5.37344L24.24 5.42677C23.5867 8.04011 22.56 8.73344 19.9867 8.94677V11.2134L23.1733 11.0401V25.9201L26.6667 25.7334V6.64011C26.1333 6.13344 25.8533 5.86677 25.32 5.36011L25.3333 5.37344Z" fill="#212322"/>
<path d="M25.3333 5.37344L24.24 5.42677C23.5867 8.04011 22.56 8.73344 19.9867 8.94677V11.2134L23.1733 11.0401V25.9201L26.6667 25.7334V6.64011C26.1333 6.13344 25.8533 5.86677 25.32 5.36011L25.3333 5.37344Z" fill="#212322"/>
<path d="M14.6667 13.3734L17.3333 13.2268V10.5601L14.6667 10.7068V13.3734Z" fill="#212322"/>
<path d="M17.3333 10.5601L14.6667 10.7068V13.3734L17.3333 13.2268V10.5601Z" fill="#212322"/>
<path d="M14.6667 21.3734L17.3333 21.2268V18.5601L14.6667 18.7068V21.3734Z" fill="#212322"/>
<path d="M17.3333 18.5601L14.6667 18.7068V21.3734L17.3333 21.2268V18.5601Z" fill="#212322"/>
</svg>
