<svg width="24" height="24" viewBox="0 0 24 24" fill="none" xmlns="http://www.w3.org/2000/svg">
<path d="M19.4 7.60001C19.3 7.40001 19.2 7.09999 19.1 6.89999C18.9 6.39999 18.7 6.00001 18.4 5.60001C18.1 5.20001 17.8 4.8 17.4 4.5C16.3 3.5 15 2.80001 13.5 2.60001C13 2.50001 12.5 2.5 11.9 2.5C9.20002 2.6 6.80002 4.09999 5.40002 6.29999C5.10002 6.69999 4.90001 7.19998 4.70001 7.69998C4.60001 7.89998 4.50002 8.19999 4.40002 8.39999C4.20002 9.09999 4 9.89998 4 10.7C4 11.5 4.10002 12.3 4.40002 13C4.80002 14.3 5.5 15.4 6.5 16.2L11.9 22L17.3 15.7L17.4 15.6C18.3 14.7 19 13.5 19.3 12.3C19.5 11.6 19.7 10.8 19.7 10C19.8 9.1 19.7 8.30001 19.4 7.60001ZM12 12.8C10.6 12.9 9.5 11.8 9.5 10.4C9.5 8.99999 10.6 7.79999 12 7.79999C13.4 7.69999 14.5 8.79998 14.5 10.2C14.5 11.6 13.4 12.7 12 12.8Z" fill="currentColor"/>
</svg>
