<svg width="32" height="32" viewBox="0 0 32 32" fill="none" xmlns="http://www.w3.org/2000/svg">
<path fill-rule="evenodd" clip-rule="evenodd" d="M2.66699 3.33325V17.7332C3.83822 18.9045 4.65223 19.647 5.6843 20.5885C6.06202 20.9331 6.46932 21.3046 6.93368 21.7332L10.8003 21.4666C10.4003 18.7999 11.2004 15.8666 13.2004 13.7332L5.33366 14.1332V12.1332L15.867 11.5999C17.2004 10.9332 18.667 10.3999 20.0003 10.3999H21.3337V6.5332C20.1623 5.36184 19.3483 4.61926 18.316 3.67764L18.3151 3.67681C17.9377 3.33247 17.531 2.9615 17.067 2.5332L2.66699 3.33325ZM18.667 8.26652L5.33366 8.93319V6.93319L18.667 6.26652V8.26652Z" fill="currentColor"/>
<path d="M13.467 26.7999C13.067 26.3999 12.667 25.9999 12.4004 25.5999L6.93368 25.8665V28.5332L15.2004 28.1332C15.0449 28.0167 14.8782 27.9001 14.7067 27.7802C14.2898 27.4888 13.8449 27.1777 13.467 26.7999Z" fill="currentColor"/>
<path d="M24.0003 6.5332V11.0666C24.9337 11.4666 25.867 11.9999 26.667 12.7999V6.5332H24.0003Z" fill="currentColor"/>
<path fill-rule="evenodd" clip-rule="evenodd" d="M24.6663 14.7999C27.0663 17.0666 27.1997 20.7999 25.333 23.4666L30.133 27.7332L28.6663 29.1999L23.9997 24.7999C23.1997 25.4666 22.2664 25.8666 21.1997 26.1332C20.9997 26.1332 20.833 26.1665 20.6664 26.1999C20.4997 26.2332 20.333 26.2665 20.133 26.2665C19.8664 26.3554 19.5997 26.3258 19.333 26.2961C19.1997 26.2813 19.0664 26.2665 18.933 26.2665C18.8664 26.2665 18.7664 26.2332 18.6664 26.1999C18.5664 26.1665 18.4664 26.1332 18.3997 26.1332C18.333 26.1332 18.233 26.0999 18.133 26.0666C18.033 26.0332 17.933 25.9999 17.8664 25.9999C17.733 25.9333 17.633 25.8999 17.533 25.8666C17.433 25.8332 17.333 25.7999 17.1997 25.7332C17.133 25.7332 17.0997 25.6999 17.0664 25.6665C17.033 25.6332 16.9997 25.5999 16.933 25.5999L16.133 25.1999C15.8665 25.0666 15.5996 24.9331 15.333 24.6666C12.6663 22.1332 12.6663 17.9999 15.333 15.1999C16.533 13.8665 18.3997 13.0666 19.9997 13.0666C21.5997 13.0666 23.333 13.5999 24.6663 14.7999ZM19.9997 24.5332C21.333 24.3999 22.3997 23.8665 23.333 22.9332C24.2663 21.9999 24.6663 20.7999 24.6663 19.5999C24.6663 18.3999 24.2663 17.1999 23.333 16.3999C22.3997 15.5999 21.333 15.0665 19.9997 15.1999C18.6663 15.3332 17.5997 15.8666 16.6663 16.7999C15.8663 17.7332 15.333 18.9332 15.333 20.1332C15.333 21.3332 15.733 22.5332 16.6663 23.3333C17.5997 24.1332 18.7997 24.5332 19.9997 24.5332Z" fill="currentColor"/>
</svg>
