<svg width="16" height="16" viewBox="0 0 16 16" fill="none" xmlns="http://www.w3.org/2000/svg">
<path d="M13.7329 5.86639C13.5996 5.46639 13.4662 5.13307 13.2662 4.79974C13.1995 4.6664 13.0662 4.46639 12.9329 4.33306C11.8662 2.79973 9.99955 1.86637 7.93288 1.93304C5.86622 2.06637 4.06622 3.19972 2.93288 4.86639C2.79955 4.99972 2.73288 5.19971 2.59955 5.39971C2.39955 5.73304 2.26621 6.13307 2.13287 6.4664C1.93287 7.0664 1.86621 7.66637 1.86621 8.26637C1.86621 8.86637 1.93287 9.46638 2.13287 10.0664C2.26621 10.4664 2.39955 10.7997 2.59955 11.1331C2.66622 11.2664 2.79955 11.4664 2.93288 11.5997C3.99955 13.133 5.86622 14.0664 7.93288 13.9997C9.99955 13.8664 11.7995 12.733 12.9329 11.0664C13.0662 10.933 13.1329 10.7331 13.2662 10.5331C13.4662 10.1997 13.5996 9.79973 13.7329 9.4664C13.9329 8.8664 13.9996 8.26639 13.9996 7.66639C13.9996 7.06639 13.9329 6.46639 13.7329 5.86639ZM11.7329 8.13307L10.4662 8.19972L9.86621 10.3331L8.86621 10.3997L8.06622 7.53305L7.26622 10.4664L6.26622 10.5331L5.66622 8.4664L4.39956 8.53305V7.53305L5.39956 7.4664L4.93288 5.93304L5.93288 5.86639L6.73289 8.73304L7.53288 5.79974L8.53288 5.73304L9.33289 8.5997L10.1329 5.66639L11.1329 5.5997L10.6662 7.13307L11.6662 7.06638V8.13307H11.7329Z" fill="#212322"/>
</svg>
