<svg width="24" height="24" viewBox="0 0 24 24" fill="none" xmlns="http://www.w3.org/2000/svg">
<path d="M18 7.00009V11.7001L20 13.7001V17.7001L7.20001 18.4001C6.85163 18.0785 6.54634 17.8 6.26296 17.5415C5.48892 16.8354 4.87842 16.2785 4 15.4001V14.6001L6 12.5001V7.80009L10 4.30009L11 4.2001V2.1001H13V4.00009L14 3.90009L18 7.00009Z" fill="#212322"/>
<path d="M9.50002 20.3001V20.1001C9.50002 20.0001 9.50002 19.8001 9.40002 19.8001L14.4 19.5001C14.4 20.6001 13.8 21.5001 12.9 21.9001C12.6 22.0001 12.2 22.1001 11.9 22.1001H11.4C11.35 22.1001 11.3 22.0751 11.25 22.0501C11.2 22.0251 11.15 22.0001 11.1 22.0001C11.0425 21.9426 11.0181 21.9182 10.9887 21.9078C10.967 21.9001 10.9425 21.9001 10.9 21.9001C10.9 21.9001 10.8 21.8001 10.7 21.8001C10.65 21.8001 10.625 21.7751 10.6 21.7501C10.575 21.7251 10.55 21.7001 10.5 21.7001L10.3 21.5001C10.2 21.5001 10.1 21.4001 10.1 21.4001L9.90002 21.2001C9.90002 21.1501 9.87502 21.1251 9.85002 21.1001C9.82502 21.0751 9.80002 21.0501 9.80002 21.0001C9.80002 21.0001 9.70003 20.9001 9.70003 20.8001C9.70003 20.7501 9.67503 20.7251 9.65002 20.7001C9.62502 20.6751 9.60002 20.6501 9.60002 20.6001C9.60002 20.5501 9.57502 20.5001 9.55002 20.4501C9.52502 20.4001 9.50002 20.3501 9.50002 20.3001Z" fill="#212322"/>
</svg>
