<svg width="24" height="24" viewBox="0 0 24 24" fill="none" xmlns="http://www.w3.org/2000/svg">
<path d="M16.3017 4.09263C15.0237 3.39592 13.5581 3 12 3C7.02944 3 3 7.02944 3 12C3 16.9706 7.02944 21 12 21C16.9706 21 21 16.9706 21 12C21 10.2207 20.4837 8.56202 19.5927 7.16558L17.9495 8.80877C18.4602 9.75899 18.75 10.8457 18.75 12C18.75 15.7279 15.7279 18.75 12 18.75C8.27208 18.75 5.25 15.7279 5.25 12C5.25 8.27208 8.27208 5.25 12 5.25C12.9283 5.25 13.8129 5.4374 14.6179 5.77642L16.3017 4.09263Z" fill="#212322"/>
</svg>
