<svg width="24" height="24" viewBox="0 0 24 24" fill="none" xmlns="http://www.w3.org/2000/svg">
  <path
    d="M11.5031 7.49377C11.3248 7.52101 11.1624 7.54583 11 7.59996L9.80002 6.29997L8.20001 4.79997C9.40001 4.19997 10.7 3.89997 12 3.79997C16.5 3.59997 20.4 6.69997 22 11.3C21.4 13 20.6 14.4 19.6 15.7L18.2 14.4L16.4 12.7C16.5 12.4 16.5 12 16.5 11.7C16.5 9.2 14.5 7.30001 12 7.40001C11.8165 7.44588 11.6541 7.4707 11.5031 7.49377Z"
    fill="currentColor" />
  <path fill-rule="evenodd" clip-rule="evenodd"
    d="M18.3 17.3L20 19.1L18.6 20.6L16.5 18.6C15.2 19.4 13.6 19.9 12 20C7.5 20.2 3.6 17.1 2 12.5C2.6 10.6 3.59999 8.9 4.89999 7.5L3.10001 5.79999L4.5 4.29999L6.39999 6.09998L7.80002 7.5L9.10001 8.70001L10.2 9.70001L14.4 13.7L15.5 14.7L18.3 17.3ZM7.5 12.2C7.5 14.7 9.5 16.6 12 16.5C12.7 16.4 13.3 16.2 13.8 16L12.6 14.9C12.5 14.9 12.4 14.925 12.3 14.95C12.2 14.975 12.1 15 12 15C10.3 15.1 9 13.9 9 12.2C9 12.0349 9.03031 11.9 9.05755 11.7788C9.0798 11.6798 9.10001 11.5899 9.10001 11.5L7.89999 10.4C7.59999 10.9 7.5 11.5 7.5 12.2Z"
    fill="currentColor" />
</svg>
