<svg width="24" height="24" viewBox="0 0 24 24" fill="none" xmlns="http://www.w3.org/2000/svg">
<path d="M9.4996 6.29996L10.9996 6.19995V9.49997L14.1996 9.29996V10.8L10.9996 11V14.2L9.4996 14.3V11.1L6.19958 11.2V9.69995L9.4996 9.59998V6.29996Z" fill="#212322"/>
<path fill-rule="evenodd" clip-rule="evenodd" d="M16.6996 15.1L20.9996 19.1L19.6996 20.6L15.3996 16.6C13.9996 17.7 12.1996 18.5 10.2996 18.6C5.79959 18.9 2.09961 15.3999 2.09961 10.7999C2.09961 6.19995 5.69959 2.29996 10.2996 2.09996C14.7996 1.79996 18.4996 5.29995 18.4996 9.89995C18.4996 11.8 17.7996 13.6 16.6996 15.1ZM10.1996 4.09996C6.79958 4.29996 3.9996 7.29994 3.9996 10.6999C3.9996 14.0999 6.79958 16.8 10.1996 16.6C13.5996 16.4 16.3996 13.4 16.3996 9.99996C16.3996 6.59996 13.5996 3.89996 10.1996 4.09996Z" fill="#212322"/>
</svg>
