<svg width="16" height="16" viewBox="0 0 16 16" fill="none" xmlns="http://www.w3.org/2000/svg">
<path fill-rule="evenodd" clip-rule="evenodd" d="M9.33325 3.93318C9.33325 2.46651 10.5333 1.19983 11.9999 1.13317C13.5333 1.0665 14.6666 2.19985 14.6666 3.66651C14.6666 5.13318 13.4666 6.39983 11.9999 6.4665C10.5333 6.53317 9.33325 5.39984 9.33325 3.93318ZM10.3999 4.06652L11.9999 5.59984L13.5999 3.93318L13.1333 3.4665L12.3333 4.33318V1.99985L11.6666 2.06652V4.39985L10.8666 3.59984L10.3999 4.06652Z" fill="black"/>
<path d="M3.6666 12.2665L10.3333 11.9332H10.2666V7.59983C10.6666 7.73317 11.1333 7.8665 11.5999 7.8665V14.5332L4.39994 14.9332C4.16771 14.7188 3.9642 14.5332 3.7753 14.3608C3.25924 13.8901 2.85224 13.5188 2.2666 12.9332V1.73317L3.0666 1.6665L8.99994 1.33317C8.39994 2.0665 7.99994 3.06651 7.99994 4.06651L3.6666 4.2665V12.2665Z" fill="black"/>
</svg>
