<svg width="24" height="24" viewBox="0 0 24 24" fill="none" xmlns="http://www.w3.org/2000/svg">
<path d="M11.5 7.19997C11.5 8.89997 10.2 10.3 8.5 10.4C6.8 10.4 5.5 9.19999 5.5 7.59999C5.5 5.89999 6.8 4.49998 8.5 4.39998C10.2 4.29998 11.5 5.49997 11.5 7.19997Z" fill="black"/>
<path d="M19.5 10.3C19.4 10.6 19.3 10.9 19.1 11.2C18.6 11.9 17.8 12.4 17.2 12.4C16.3 12.4 15.5 12 15.1 11.4C14.9 11.1 14.8 10.8 14.7 10.5C14.6 10.3 14.6 10.2 14.6 10C14.6 8.70001 15.7 7.49996 17.1 7.39996C18.5 7.39996 19.6 8.39999 19.6 9.79999C19.6 9.89999 19.575 9.97499 19.55 10.05C19.525 10.125 19.5 10.2 19.5 10.3Z" fill="black"/>
<path d="M2 13.7V17.5C2.87844 18.3784 3.48895 18.9354 4.26302 19.6415C4.5463 19.8999 4.85175 20.1785 5.2 20.5L15 20V13L8.5 11.3L2 13.7Z" fill="black"/>
<path d="M17 19.9V13.4L22 14.8V19.7L17 19.9Z" fill="black"/>
</svg>
