<svg width="24" height="24" viewBox="0 0 24 24" fill="none" xmlns="http://www.w3.org/2000/svg">
<path fill-rule="evenodd" clip-rule="evenodd" d="M11 2H13V3.95003L14 3.90002L18 6.90002V11.6L20 13.5V17.5L7.2 18.2C6.85165 17.8785 6.54638 17.6 6.26302 17.3415C5.48895 16.6354 4.87844 16.0785 4 15.2V14.4L6 12.3V7.60003L10 4.10003L11 4.05003V2ZM15.9 8.10003L13.3 6.00002H10.8L8 8.50002V13.1L7.4 13.7L6.4 14.8L6.9 15.3L7.9 16.2L17.9 15.8V14.6L16.5 13.3L15.9 12.7V8.10003Z" fill="#212322"/>
<path d="M14.5 19.4C14.5 20.3352 14.0092 21.1812 13.266 21.6398C12.8861 21.8997 12.449 22.0655 12 22.1H11.9C10.5 22.1 9.5 21 9.5 19.7L9.50187 19.6999C9.50063 19.6668 9.5 19.6335 9.5 19.6L14.5 19.4Z" fill="#212322"/>
</svg>
