<svg width="16" height="16" viewBox="0 0 16 16" fill="none" xmlns="http://www.w3.org/2000/svg">
<path d="M12.9332 3.06665C12.1999 2.33332 11.1999 1.93335 10.2665 1.93335C9.3332 1.93335 8.3332 2.33332 7.59987 3.06665L5.86654 4.80001L6.79987 5.73332L8.5332 4C8.99987 3.53333 9.59987 3.26668 10.2665 3.26668C10.9332 3.26668 11.5332 3.53333 11.9999 4C12.4665 4.46667 12.7332 5.06665 12.7332 5.73332C12.7332 6.39998 12.4665 7.00001 11.9999 7.46667L10.2665 9.19999L11.1999 10.1333L12.9332 8.39998C14.3999 6.99998 14.3999 4.59998 12.9332 3.06665Z" fill="black"/>
<path d="M7.5332 11.9333C7.06654 12.4 6.39987 12.6667 5.79987 12.6667C5.1332 12.6667 4.5332 12.4 4.06654 11.9333C3.59987 11.4667 3.33321 10.8667 3.33321 10.2C3.33321 9.53333 3.59987 8.93334 4.06654 8.46667L5.79987 6.73332L4.86654 5.80001L3.1332 7.53333C1.66654 8.99999 1.66654 11.4 3.1332 12.9333C3.86654 13.6667 4.86654 14.0667 5.79987 14.0667C6.7332 14.0667 7.7332 13.6667 8.46654 12.9333L10.1999 11.2L9.26654 10.2667L7.5332 11.9333Z" fill="black"/>
<path d="M10.1332 6.80001L8.9332 7.93335L7.9332 8.93335L6.79987 10.1333L5.86654 9.19999L6.99987 8L7.99987 7L9.19987 5.86666L10.1332 6.80001Z" fill="black"/>
</svg>
