<svg width="24" height="24" viewBox="0 0 24 24" fill="none" xmlns="http://www.w3.org/2000/svg">
  <path fill-rule="evenodd" clip-rule="evenodd"
    d="M12 3H12.2C14.3 3 15.9 4.7 16 6.8C16 9 14.2 10.9 12 11H11.8C9.69999 11 8 9.3 8 7.2C8 5 9.8 3.1 12 3ZM14 6.8C14 5.8 13.2 5 12.2 5H12.1C11 5.1 10 6.1 10 7.2C10 8.2 10.8 9 11.8 9H11.9C13 8.9 14 7.9 14 6.8Z"
    fill="currentColor" />
  <path d="M5.69998 20.4L3 17.8V14.8L9.39999 11.9L10.2 13.7L5 16.1V16.9L6.39999 18.3L9.89999 18.2L10 20.2L5.69998 20.4Z"
    fill="currentColor" />
  <path fill-rule="evenodd" clip-rule="evenodd"
    d="M16 21.1L18 21V17L22 16.79V14.79L18 15V11L16 11.1V15.1L12 15.31V17.31L16 17.1V21.1Z" fill="currentColor" />
</svg>
