<svg width="24" height="24" viewBox="0 0 24 24" fill="none" xmlns="http://www.w3.org/2000/svg">
  <path
    d="M21.4004 19.9999L15.5004 14.4999C16.4004 13.1999 17.0004 11.6999 17.0004 9.99988C17.0004 5.89988 13.7004 2.79988 9.70039 2.99988C5.60039 3.19988 2.40039 6.69988 2.40039 10.6999C2.40039 14.6999 5.70039 17.8999 9.70039 17.6999C11.4004 17.5999 12.9004 16.9999 14.1004 15.9999L20.0004 21.4999L21.4004 19.9999ZM4.30039 10.5999C4.30039 7.69988 6.70039 5.09988 9.60039 4.99988C12.5004 4.79988 14.9004 7.09988 14.9004 10.0999C14.9004 13.0999 12.5004 15.5999 9.60039 15.6999C6.70039 15.7999 4.30039 13.5999 4.30039 10.5999Z"
    fill="currentColor" />
</svg>
