<svg width="24" height="24" viewBox="0 0 24 24" fill="none" xmlns="http://www.w3.org/2000/svg">
<path d="M20.6004 8.89998C20.4004 8.29998 20.2004 7.80001 19.9004 7.30001C19.8004 7.10001 19.6004 6.79999 19.4004 6.59999C17.8004 4.29999 15.0004 2.90002 11.9004 3.00002C6.90039 3.30002 2.90039 7.50002 2.90039 12.5C2.90039 17.5 6.90039 21.3 11.9004 21C15.0004 20.8 17.7004 19.1 19.4004 16.6C19.6004 16.4 19.7004 16.1 19.9004 15.8C20.2004 15.3 20.4004 14.7 20.6004 14.2C20.9004 13.3 21.0004 12.4 21.0004 11.5C21.0004 10.6 20.9004 9.69998 20.6004 8.89998ZM13.0004 17.9L11.0004 18V16L13.0004 15.9V17.9ZM13.0004 13.9L11.0004 14V6.00002L13.0004 5.89998V13.9Z" fill="currentColor"/>
</svg>
