<svg width="24" height="24" viewBox="0 0 24 24" fill="none" xmlns="http://www.w3.org/2000/svg">
<path d="M14.1829 9.82646C15.3301 10.9441 15.2916 12.8442 14.097 14.0706C12.9023 15.297 11.0038 15.3851 9.85652 14.2675C8.70928 13.1499 8.74773 11.2497 9.94242 10.0234C11.1371 8.797 13.0356 8.70885 14.1829 9.82646Z" fill="currentColor"/>
<path fill-rule="evenodd" clip-rule="evenodd" d="M2 12.5C3.6 7.79999 7.5 4.19999 12 3.99999C16.6 3.79999 20.5 6.89999 22 11.5C20.4 16.2 16.5 19.8 12 20C7.5 20.2 3.6 17.1 2 12.5ZM7.5 12.1999C7.5 14.6999 9.5 16.6 12 16.5C14.5 16.4 16.5 14.3 16.5 11.8C16.5 9.29997 14.5 7.39999 12 7.49999C9.5 7.59999 7.5 9.69994 7.5 12.1999Z" fill="currentColor"/>
</svg>
