<svg width="24" height="24" viewBox="0 0 24 24" fill="none" xmlns="http://www.w3.org/2000/svg">
  <path fill-rule="evenodd" clip-rule="evenodd"
    d="M11.82 13.18L13.07 11.93L20.37 19.23L19.12 20.48L11.82 13.18ZM9.17001 10.52L10.42 9.27003L11.66 10.51L10.41 11.76L9.17001 10.52ZM6.34001 10.52L19.12 23.3L23.2 19.22L10.42 6.44003L6.34001 10.52Z"
    fill="currentColor" />
  <path d="M9.52001 1.16003H11.52V4.61003H9.52001V1.16003Z" fill="currentColor" />
  <path d="M1.01001 9.67003H4.53001V11.67H1.01001V9.67003Z" fill="currentColor" />
  <path fill-rule="evenodd" clip-rule="evenodd"
    d="M17.79 4.81003L16.37 3.40003L13.79 5.98003L15.21 7.39003L17.79 4.81003Z" fill="currentColor" />
  <path d="M3.21935 16.4927L5.7932 13.9189L7.2074 15.3331L4.63355 17.9069L3.21935 16.4927Z" fill="currentColor" />
  <path d="M3.076 4.66103L4.4902 3.24683L7.03576 5.79239L5.62156 7.20659L3.076 4.66103Z" fill="currentColor" />
</svg>
