<svg width="48" height="48" viewBox="0 0 48 48" fill="none" xmlns="http://www.w3.org/2000/svg">
<path d="M35.5 22.25H38.5V23.75H35.5V22.25Z" fill="#212322"/>
<path fill-rule="evenodd" clip-rule="evenodd" d="M31 37V38C31 38.5523 31.4477 39 32 39H42C42.5523 39 43 38.5523 43 38V20C43 19.4477 42.5523 19 42 19H39V10C39 9.44772 38.5523 9 38 9H6C5.44772 9 5 9.44772 5 10V28C5 28.5523 5.44772 29 6 29H17.0476L16.2857 33H12C11.4477 33 11 33.4477 11 34V36C11 36.5523 11.4477 37 12 37H31ZM6.5 27.5V10.5H37.5V19H32C31.4477 19 31 19.4477 31 20V27.5H6.5ZM31 29H26.9524L27.7143 33H31V29ZM31 34.5H12.5V35.5H31V34.5ZM18.5746 29L17.8127 33H26.1873L25.4254 29H18.5746ZM41.5 20.5H32.5V37.5H41.5V20.5Z" fill="#212322"/>
</svg>
