<svg width="16" height="16" viewBox="0 0 16 16" fill="none" xmlns="http://www.w3.org/2000/svg">
<path d="M13.1998 4.33349C13.0665 4.20015 12.9332 4.00014 12.8665 3.86681C12.5998 3.60014 12.3332 3.2668 11.9998 3.0668C11.8665 2.93347 11.6665 2.80014 11.5332 2.73347C10.5332 2.13347 9.33317 1.80014 7.99984 1.86681C7.6665 1.86681 7.33315 1.93349 7.06649 2.00015C6.46649 2.13349 5.8665 2.33349 5.2665 2.66682C4.99983 2.80015 4.73316 3.00012 4.46649 3.13345C3.86649 3.53345 3.33317 4.06682 2.93317 4.66682C2.13317 5.73349 1.6665 7.13348 1.6665 8.53348C1.6665 9.86681 2.06649 11.0668 2.79983 12.0668C2.93316 12.2001 3.0665 12.4001 3.19983 12.5335C3.33316 12.6668 3.4665 12.8001 3.59983 12.9335C4.33317 13.6001 5.19983 14.0668 6.19983 14.3335C6.79983 14.4668 7.39982 14.5335 8.06649 14.5335C8.46649 14.5335 8.93317 14.4668 9.33317 14.3335C9.53317 14.2668 9.73317 14.2001 9.93317 14.1335C10.9332 13.8001 11.7998 13.2001 12.5332 12.4668C12.7998 12.2001 12.9998 11.9335 13.1998 11.6001C13.9332 10.5335 14.3998 9.20012 14.3998 7.80012C14.3332 6.46679 13.9332 5.26682 13.1998 4.33349ZM6.46649 3.80012C6.73316 3.46679 7.13316 3.26679 7.53316 3.13345C7.6665 3.06679 7.79984 3.0668 7.99984 3.0668C8.4665 3.0668 8.8665 3.13347 9.19983 3.40014C9.79983 3.73347 10.1332 4.40012 10.1332 5.13345C10.1332 6.00012 9.59983 6.80014 8.79983 7.20014C8.53316 7.33348 8.2665 7.40014 7.93317 7.40014C7.79983 7.40014 7.66649 7.40014 7.46649 7.40014C6.93316 7.33347 6.39983 7.00014 6.13316 6.53348C5.93316 6.20014 5.73315 5.80015 5.73315 5.33349C5.79982 4.80015 6.06649 4.20012 6.46649 3.80012ZM12.5998 9.73347C12.5998 9.73347 12.5998 9.80014 12.5998 9.73347C12.5332 9.93347 12.3998 10.1335 12.3332 10.3335C12.3332 10.4002 12.2665 10.4001 12.2665 10.4668C12.1332 10.6668 12.0665 10.8001 11.9332 10.9335C11.9332 10.9335 11.9332 11.0002 11.8665 11.0002C11.7332 11.2002 11.5998 11.3335 11.3998 11.4668C11.3332 11.5335 11.3332 11.5335 11.2665 11.6001C11.1332 11.7335 10.9332 11.8668 10.7998 12.0002C10.7998 12.0002 10.7998 12.0001 10.7332 12.0668C10.5332 12.2001 10.3998 12.3335 10.1998 12.4001C10.1332 12.4001 10.1332 12.4668 10.0665 12.4668C9.86649 12.5335 9.66649 12.6668 9.46649 12.7335C9.46649 12.7335 9.46649 12.7335 9.39982 12.7335C9.19982 12.8001 8.99982 12.8668 8.73315 12.9335C8.66649 12.9335 8.59983 12.9335 8.59983 13.0002C8.39983 13.0668 8.13317 13.0668 7.93317 13.0668C7.73317 13.0668 7.4665 13.0668 7.2665 13.0668C7.19983 13.0668 7.13316 13.0668 7.13316 13.0668C6.93316 13.0668 6.66649 13.0001 6.46649 12.9335C6.26649 12.8668 6.0665 12.8001 5.8665 12.7335C5.79983 12.7335 5.79982 12.6668 5.73315 12.6668C5.53315 12.6002 5.33316 12.4668 5.19983 12.4001C5.19983 12.4001 5.19983 12.4001 5.13316 12.4001C4.99983 12.2668 4.79984 12.2001 4.6665 12.0668C4.59984 12.0668 4.59983 12.0002 4.53316 12.0002C4.39983 11.8668 4.19982 11.7335 4.06649 11.5335C4.06649 11.5335 4.0665 11.4668 3.99984 11.4668C3.8665 11.3335 3.79984 11.2002 3.6665 11.0002C3.6665 10.9335 3.59983 10.9335 3.59983 10.8668C3.4665 10.6668 3.39984 10.4668 3.33317 10.3335C3.2665 10.2002 3.19983 10.0668 3.19983 9.93346L7.99984 8.20014L12.7998 9.40014C12.7332 9.4668 12.6665 9.60014 12.5998 9.73347Z" fill="#212322"/>
</svg>
