<svg width="24" height="24" viewBox="0 0 24 24" fill="none" xmlns="http://www.w3.org/2000/svg">
<path fill-rule="evenodd" clip-rule="evenodd" d="M11.0002 17.28L10.3002 17.06C10.0902 16.99 9.88023 16.92 9.69023 16.82L9.03023 16.5L7.30023 18.32L6.71023 18.34L5.63023 17.32L7.72023 15.12L7.45023 14.51C7.38023 14.34 7.31023 14.18 7.25023 14L7.01023 13.27L3.98023 13.43V11.43L7.04023 11.27L7.25023 10.61C7.31023 10.43 7.38023 10.25 7.45023 10.07L7.72023 9.42997L5.62023 7.43997L7.07023 5.90997L9.09023 7.81997L9.74023 7.43997C9.94023 7.31997 10.1502 7.21997 10.3702 7.12997L10.9802 6.86997V4.07997L12.9802 3.97997V6.72997L13.6802 6.94997C13.8902 7.01997 14.1002 7.08997 14.2902 7.18997L14.9502 7.50997L16.6802 5.68997L17.2602 5.66997L18.3402 6.68997L16.2502 8.88997L16.5302 9.49997C16.6002 9.65997 16.6702 9.82997 16.7302 10.01L16.9702 10.74L20.0002 10.58V12.58L16.9402 12.74L16.7302 13.4C16.6702 13.58 16.6002 13.76 16.5302 13.94L16.2502 14.58L18.3502 16.57L16.9002 18.1L14.8802 16.19L14.2302 16.57C14.0302 16.69 13.8202 16.79 13.6002 16.88L12.9902 17.14V19.93L10.9902 20.03V17.28H11.0002ZM9.00023 9.14997V15.15L15.0002 14.84V8.83997L9.00023 9.14997Z" fill="currentColor"/>
<path d="M12.0002 5.01997V7.44997L13.3902 7.89997C13.3902 7.89997 13.4502 7.91997 13.4702 7.92997L10.7202 8.06997C10.7202 8.06997 10.7602 8.04997 10.7802 8.03997L12.0002 7.51997V5.01997ZM7.13023 7.31997L8.06024 8.19997H7.99023V8.27997L7.92023 8.20997L7.05023 7.38997L7.12023 7.30997M15.9902 10.98L16.2502 11.77H16.1902L16.0002 12.39V10.99M8.00023 11.61V13.01L7.74023 12.23H7.80023L7.99023 11.61M15.9902 15.72L16.0602 15.79L16.9302 16.61L16.8602 16.69L15.9302 15.81H16.0002V15.73M13.2802 15.95C13.2802 15.95 13.2402 15.97 13.2202 15.98L12.0002 16.5V16.57L10.6102 16.12C10.6102 16.12 10.5502 16.1 10.5302 16.09L13.2802 15.95ZM14.0002 2.91997L10.0002 3.12997V6.20997C9.74023 6.31997 9.49023 6.43997 9.25023 6.57997L7.06023 4.49997L4.23023 7.47997L6.55023 9.67997C6.46023 9.88997 6.38023 10.1 6.31023 10.31L2.99023 10.48V14.48L6.31023 14.31C6.38023 14.52 6.46023 14.72 6.55023 14.92L4.23023 17.36L6.33023 19.35C6.88023 19.34 7.19023 19.33 7.74023 19.31L9.25023 17.73C9.49023 17.85 9.74023 17.94 10.0002 18.02V21.1L14.0002 20.89V17.81C14.2602 17.7 14.5102 17.58 14.7502 17.44L16.9402 19.52L19.7702 16.54L17.4502 14.34C17.5402 14.13 17.6202 13.92 17.6902 13.71L21.0102 13.54V9.53997L17.6902 9.70997C17.6202 9.49997 17.5402 9.29997 17.4502 9.09997L19.7702 6.65997L17.6702 4.66997C17.1202 4.67997 16.8102 4.68997 16.2602 4.70997L14.7502 6.28997C14.5102 6.16997 14.2602 6.07997 14.0002 5.99997V2.90997V2.91997ZM10.0002 14.12V10.12L14.0002 9.90997V13.91L10.0002 14.12Z" fill="currentColor"/>
</svg>
