<svg width="16" height="16" viewBox="0 0 16 16" fill="none" xmlns="http://www.w3.org/2000/svg">
  <path fill-rule="evenodd" clip-rule="evenodd"
    d="M10.1 1.93335H10C9.12104 1.9733 8.36977 2.5879 8.10334 3.3945L3 3.66667V4.93334L8.10596 4.66102C8.36496 5.40222 9.06999 5.93335 9.89999 5.93335H10C10.8839 5.89317 11.6387 5.27189 11.9011 4.45862L13 4.40001V3.13334L11.8699 3.19361C11.5965 2.45872 10.9255 1.93335 10.1 1.93335ZM9.96666 4.60002C9.90132 4.60002 9.83829 4.59014 9.779 4.57179C9.52074 4.49189 9.33333 4.25133 9.33333 3.96668C9.33333 3.66614 9.53489 3.39918 9.80951 3.3035C9.86993 3.28245 9.93388 3.26969 10 3.26668H10.0333C10.0839 3.26668 10.1327 3.2726 10.1793 3.28378C10.4552 3.34996 10.6524 3.60059 10.6667 3.90002C10.6667 4.18564 10.4846 4.44092 10.2308 4.5477C10.1588 4.57799 10.081 4.59633 10 4.60002H9.96666Z"
    fill="currentColor" />
  <path fill-rule="evenodd" clip-rule="evenodd"
    d="M3 12.8667V11.6L4.10311 11.5485C4.36933 10.7416 5.12078 10.1266 6 10.0867H6.09999C6.93495 10.0867 7.61184 10.6242 7.87921 11.3723L13 11.1333V12.3333L7.90327 12.6052C7.64284 13.4218 6.88634 14.0464 6 14.0867H5.89999C5.06755 14.0867 4.36082 13.5524 4.10369 12.8078L3 12.8667ZM5.76144 12.7194C5.82579 12.7414 5.89482 12.7533 5.96666 12.7533H6C6.08759 12.7494 6.17138 12.7283 6.24819 12.6934C6.49288 12.5825 6.66667 12.3324 6.66667 12.0533C6.65319 11.7703 6.47617 11.5308 6.22379 11.4496C6.16413 11.4304 6.10025 11.42 6.03333 11.42H6C5.92052 11.4236 5.84417 11.4413 5.77333 11.4706C5.51737 11.5763 5.33333 11.8328 5.33333 12.12C5.33333 12.3982 5.51229 12.6342 5.76144 12.7194Z"
    fill="currentColor" />
  <path d="M3 8.86667V7.66667L13 7.13334V8.40001L3 8.86667Z" fill="currentColor" />
</svg>
