<svg width="24" height="24" viewBox="0 0 24 24" fill="none" xmlns="http://www.w3.org/2000/svg">
<path d="M11.9004 5C8.10039 5.2 4.90039 8.49996 4.90039 12.4C4.90039 13.2 5.0004 14 5.3004 14.8L3.8004 16.4C3.2004 15.2 2.90039 13.9 2.90039 12.5C2.90039 7.5 6.90039 3.3 11.9004 3C13.3004 2.9 14.6004 3.19995 15.8004 3.69995L14.3004 5.29998C13.5004 5.09999 12.7004 5 11.9004 5Z" fill="black"/>
<path fill-rule="evenodd" clip-rule="evenodd" d="M16.2004 6.09998L17.6004 4.59998C19.6004 6.19998 21.0004 8.7 21.0004 11.5C21.0004 16.5 17.0004 20.7 12.0004 21C9.20037 21.2 6.70037 20 5.00037 18L6.40036 16.5L16.2004 6.09998ZM7.70036 17.8C8.90036 18.6 10.3004 19.1 11.9004 19C15.8004 18.8 19.0004 15.5 18.9004 11.6C18.9004 9.99998 18.4004 8.6 17.5004 7.5L7.70036 17.8Z" fill="black"/>
</svg>
