<svg width="24" height="24" viewBox="0 0 24 24" fill="none" xmlns="http://www.w3.org/2000/svg">
<path fill-rule="evenodd" clip-rule="evenodd" d="M17.5 7.20007L17.4992 7.19926C16.9997 6.69975 16.6998 6.39987 16.3 6.10004L15.5 5.30005V3.30005L13.5 3.40002V5.40002L6.5 5.80005V3.80005L4.5 3.90002V5.90002L2.5 6.00006V13.8C3.37842 14.6785 3.98893 15.2354 4.76298 15.9415C5.04635 16.2 5.35164 16.4785 5.70001 16.8L17.5 16.2001V7.20007ZM6.5 12.2001V14.2001L4.5 14.3V12.3L6.5 12.2001ZM6.5 10.2001L4.5 10.3V8.30005L6.5 8.20007V10.2001ZM11 12.0001V14.0001L9 14.1V12.1L11 12.0001ZM11 10.0001L9 10.1V8.10004L11 8.00006V10.0001ZM15.5 11.8V13.8L13.5 13.9V11.9L15.5 11.8ZM15.5 9.80005L13.5 9.90002V7.90002L15.5 7.80005V9.80005Z" fill="#212322"/>
<path d="M19.5 18.1V7.50006L21.5 7.40002V20.0001L6 20.8V18.8L19.5 18.1Z" fill="#212322"/>
</svg>
