<svg width="16" height="16" viewBox="0 0 16 16" fill="none" xmlns="http://www.w3.org/2000/svg">
  <path
    d="M12.0003 4.66656V7.7999L13.3337 9.13323V11.7999L4.80033 12.2666C4.56808 12.0522 4.36455 11.8665 4.17563 11.6942C3.6596 11.2234 3.2526 10.8522 2.66699 10.2666V9.73324L4.00033 8.33323V5.1999L6.66699 2.86657L7.33366 2.7999V1.3999H8.66699V2.66656L9.33366 2.5999L12.0003 4.66656Z"
    fill="currentColor" />
  <path
    d="M6.33367 13.5333V13.3999C6.33367 13.3333 6.33367 13.1999 6.26701 13.1999L9.60034 12.9999C9.60034 13.7333 9.20034 14.3333 8.60034 14.5999C8.40034 14.6666 8.13368 14.7333 7.93367 14.7333H7.60034C7.56701 14.7333 7.53367 14.7166 7.50034 14.6999C7.46701 14.6833 7.43367 14.6666 7.40034 14.6666C7.362 14.6282 7.34571 14.612 7.32611 14.605C7.31163 14.5999 7.29534 14.5999 7.26701 14.5999C7.26701 14.5999 7.20034 14.5333 7.13368 14.5333C7.10034 14.5333 7.08367 14.5166 7.06701 14.4999C7.05034 14.4833 7.03367 14.4666 7.00034 14.4666L6.867 14.3333C6.80034 14.3333 6.73367 14.2666 6.73367 14.2666L6.60034 14.1333C6.60034 14.0999 6.58367 14.0833 6.56701 14.0666C6.55034 14.0499 6.53367 14.0333 6.53367 13.9999C6.53367 13.9999 6.46701 13.9333 6.46701 13.8666C6.46701 13.8333 6.45034 13.8166 6.43367 13.7999C6.41701 13.7833 6.40034 13.7666 6.40034 13.7333C6.40034 13.6999 6.38367 13.6666 6.367 13.6333C6.35034 13.5999 6.33367 13.5666 6.33367 13.5333Z"
    fill="currentColor" />
</svg>
