<svg width="24" height="24" viewBox="0 0 24 24" fill="none" xmlns="http://www.w3.org/2000/svg">
<path d="M17.7004 13.9L18.8004 15L21.9004 11.7L18.5004 8.5L19.6004 7.29999C20.6004 6.29999 20.6004 4.69999 19.6004 3.79999C18.6004 2.89999 17.0004 3 16.1004 4L15.0004 5.19995L11.6004 2L8.5004 5.29999L9.6004 6.39996C10.6004 7.29996 10.6004 8.89996 9.6004 9.89996C8.6004 10.9 7.0004 11 6.1004 10.1L5.0004 9L1.90039 12.3L12.2004 22L15.3004 18.7L14.2004 17.6C13.2004 16.7 13.2004 15.1 14.2004 14.1C15.2004 13.1 16.8004 13 17.7004 13.9Z" fill="black"/>
</svg>
