<svg width="16" height="16" viewBox="0 0 16 16" fill="none" xmlns="http://www.w3.org/2000/svg">
<path d="M12.2664 3.53333C11.9997 3.26666 11.6664 3.06666 11.3997 2.86666C11.2664 2.79999 11.0664 2.66664 10.9331 2.59998C10.0664 2.19998 9.13307 2 8.06641 2C4.73307 2.2 2.06641 5 2.06641 8.33333C2.06641 11.6667 4.73307 14.2 8.06641 14C9.13307 13.9333 10.0664 13.6 10.9331 13.1333C11.1331 13 11.2664 12.9333 11.3997 12.8C11.7331 12.6 11.9997 12.3333 12.2664 12C13.3331 10.8667 13.9997 9.33333 13.9997 7.66667C13.9997 6 13.3331 4.59999 12.2664 3.53333ZM10.3997 11.2L7.39974 8.33333V3.73332L8.73307 3.66667V7.73332L11.3331 10.2L10.3997 11.2Z" fill="currentColor"/>
</svg>
