<svg width="24" height="24" viewBox="0 0 24 24" fill="none" xmlns="http://www.w3.org/2000/svg">
  <path
    d="M17.7 13.9L18.8 15L21.9 11.7L18.5 8.5L19.6 7.29999C20.6 6.29999 20.6 4.69999 19.6 3.79999C18.6 2.89999 17 3 16.1 4L15 5.19995L11.6 2L8.50003 5.29999L9.60004 6.39996C10.6 7.29996 10.6 8.89996 9.60004 9.89996C8.60004 10.9 7.00004 11 6.10004 10.1L5.00003 9L1.90002 12.3L12.2 22L15.3 18.7L14.2 17.6C13.2 16.7 13.2 15.1 14.2 14.1C15.2 13.1 16.8 13 17.7 13.9Z"
    fill="currentColor" />
</svg>
