<svg width="24" height="24" viewBox="0 0 24 24" fill="none" xmlns="http://www.w3.org/2000/svg">
<path d="M20.5998 8.80007C20.3998 8.20007 20.1998 7.70009 19.8998 7.20009C19.7998 7.00009 19.5998 6.70008 19.3998 6.50008C17.7998 4.20008 14.9998 2.80004 11.8998 2.90004C8.79981 3.10004 6.09981 4.80007 4.39981 7.30007C4.19981 7.50007 4.09981 7.80005 3.89981 8.10005C3.59981 8.60005 3.3998 9.20009 3.1998 9.70009C2.8998 10.6001 2.7998 11.5 2.7998 12.4C2.7998 13.3 2.8998 14.2001 3.1998 15.1001C3.3998 15.7001 3.59981 16.2001 3.89981 16.7001C3.99981 16.9001 4.19981 17.2 4.39981 17.4C5.99981 19.7 8.79981 21.1001 11.8998 21.0001C14.9998 20.8001 17.6998 19.1001 19.3998 16.6001C19.5998 16.4001 19.6998 16.1001 19.8998 15.8001C20.1998 15.3001 20.3998 14.7001 20.5998 14.2001C20.8998 13.3001 20.9998 12.4001 20.9998 11.5001C20.9998 10.6001 20.8998 9.70007 20.5998 8.80007ZM17.5998 12.2001L15.6998 12.3001L14.7998 15.5001L13.2998 15.6001L12.0998 11.3001L10.8998 15.7001L9.39981 15.8001L8.49982 12.7001L6.59982 12.8001V11.3001L8.09982 11.2001L7.39981 8.90004L8.89981 8.80007L10.0998 13.1001L11.2998 8.70009L12.7998 8.60005L13.9998 12.9L15.1998 8.50008L16.6998 8.40004L15.9998 10.7001L17.4998 10.6001V12.2001H17.5998Z" fill="#212322"/>
</svg>
