<svg width="32" height="32" viewBox="0 0 32 32" fill="none" xmlns="http://www.w3.org/2000/svg">
<path fill-rule="evenodd" clip-rule="evenodd" d="M14.6663 23.0399L13.733 22.7465C13.453 22.6532 13.173 22.5599 12.9197 22.4265L12.0397 21.9999L9.733 24.4265L8.94633 24.4532L7.50633 23.0932L10.293 20.1599L9.93299 19.3465C9.83966 19.1199 9.74633 18.9066 9.66633 18.6665L9.34633 17.6932L5.30633 17.9066V15.2399L9.38633 15.0266L9.66633 14.1465C9.74633 13.9065 9.83966 13.6665 9.93299 13.4265L10.293 12.5732L7.49299 9.91988L9.42633 7.87988L12.1197 10.4265L12.9863 9.91988C13.253 9.75988 13.533 9.62655 13.8263 9.50655L14.6397 9.15988V5.43988L17.3063 5.30655V8.97322L18.2397 9.26655C18.5197 9.35988 18.7997 9.45322 19.053 9.58655L19.933 10.0132L22.2397 7.58655L23.013 7.55988L24.453 8.91988L21.6663 11.8532L22.0397 12.6665C22.133 12.8799 22.2263 13.1066 22.3063 13.3465L22.6263 14.3199L26.6663 14.1066V16.7732L22.5863 16.9865L22.3063 17.8665C22.2263 18.1066 22.133 18.3465 22.0397 18.5865L21.6663 19.4399L24.4663 22.0932L22.533 24.1332L19.8397 21.5866L18.973 22.0932C18.7063 22.2532 18.4263 22.3865 18.133 22.5065L17.3197 22.8532V26.5732L14.653 26.7066V23.0399H14.6663ZM11.9997 12.1999V20.1999L19.9997 19.7866V11.7866L11.9997 12.1999Z" fill="#212322"/>
<path d="M15.9997 6.69322V9.93322L17.853 10.5332C17.853 10.5332 17.933 10.5599 17.9597 10.5732L14.293 10.7599C14.293 10.7599 14.3463 10.7332 14.373 10.7199L15.9997 10.0265V6.69322ZM9.50633 9.75988L10.7463 10.9332H10.653V11.0399L10.5597 10.9465L9.39966 9.85322L9.493 9.74655M21.3197 14.6399L21.6663 15.6932H21.5863L21.333 16.5199V14.6532M10.6663 15.4799V17.3465L10.3197 16.3065H10.3997L10.653 15.4799M21.3197 20.9599L21.413 21.0532L22.573 22.1466L22.4797 22.2532L21.2397 21.0799H21.333V20.9732M17.7063 21.2666C17.7063 21.2666 17.653 21.2932 17.6263 21.3065L15.9997 21.9999V22.0932L14.1463 21.4932C14.1463 21.4932 14.0663 21.4666 14.0397 21.4532L17.7063 21.2666ZM18.6663 3.89322L13.333 4.17322V8.27988C12.9863 8.42655 12.653 8.58655 12.333 8.77322L9.41299 5.99988L5.63966 9.97322L8.733 12.9066C8.613 13.1866 8.50633 13.4666 8.41299 13.7466L3.98633 13.9732V19.3065L8.41299 19.0799C8.50633 19.3599 8.613 19.6266 8.733 19.8932L5.63966 23.1466L8.43966 25.7999C9.17299 25.7866 9.58633 25.7732 10.3197 25.7465L12.333 23.6399C12.653 23.7999 12.9863 23.9199 13.333 24.0266V28.1332L18.6663 27.8532V23.7465C19.013 23.5999 19.3463 23.4399 19.6663 23.2532L22.5863 26.0266L26.3597 22.0532L23.2663 19.1199C23.3863 18.8399 23.493 18.5599 23.5863 18.2799L28.013 18.0532V12.7199L23.5863 12.9466C23.493 12.6665 23.3863 12.3999 23.2663 12.1332L26.3597 8.87988L23.5597 6.22655C22.8263 6.23988 22.413 6.25322 21.6797 6.27988L19.6663 8.38655C19.3463 8.22655 19.013 8.10655 18.6663 7.99988V3.87988V3.89322ZM13.333 18.8265V13.4932L18.6663 13.2132V18.5465L13.333 18.8265Z" fill="#212322"/>
</svg>
