<svg width="32" height="32" viewBox="0 0 32 32" fill="none" xmlns="http://www.w3.org/2000/svg">
<path d="M15.4137 26.6801C9.78705 26.6801 5.38704 22.2667 5.38704 16.6267C5.38704 10.7067 10.2004 5.64006 16.1204 5.33339C16.307 5.33339 16.507 5.32006 16.6937 5.32006C22.3204 5.32006 26.7204 9.73339 26.7204 15.3734C26.7204 21.2934 21.907 26.3601 15.987 26.6667C15.8004 26.6667 15.6004 26.6801 15.4137 26.6801ZM13.3337 19.6667V25.0001L18.6804 24.7201V19.4001H18.4937C18.5204 19.0267 19.0537 18.3467 19.6804 17.5601C20.8537 16.1334 21.9337 14.6667 21.9337 12.5067C21.9337 9.25339 19.7737 7.14672 16.4137 7.14672C16.267 7.14672 16.1204 7.14672 15.9737 7.14672C12.467 7.33339 10.2004 9.77339 10.2004 13.3734V15.6934L15.0937 15.4401V13.3734C15.0937 11.8001 15.7604 11.7601 16.0804 11.7467H16.1737C16.4804 11.7467 16.9337 11.7467 16.9337 12.6934C16.9337 13.4001 16.6404 13.9601 15.6804 15.0801C14.467 16.5201 13.707 17.7467 13.6404 19.4001V19.6667L13.3337 19.6801V19.6667Z" fill="#212322"/>
<path d="M22.0404 8.45339C24.0804 10.0401 25.3737 12.5201 25.3737 15.3734C25.3737 19.1334 23.1737 22.4934 20.0004 24.1867V19.2934C20.227 18.9734 20.547 18.5867 20.6804 18.4134C21.9737 16.8534 23.2404 15.1067 23.2404 12.4934C23.2404 10.9334 22.827 9.56006 22.027 8.45339M9.73371 9.53339C9.14704 10.6267 8.84038 11.9334 8.84038 13.3734V17.0934L11.6404 16.9467L12.8537 16.8801C12.6537 17.3467 12.4937 17.8401 12.387 18.3734L11.9737 18.4001V24.6667C8.84038 23.3601 6.69371 20.2934 6.69371 16.6267C6.69371 13.8934 7.86704 11.3601 9.72038 9.53339M16.667 3.97339C16.4537 3.97339 16.2404 3.97339 16.027 3.98672C9.41371 4.34672 4.05371 10.0001 4.05371 16.6267C4.05371 23.2534 9.08038 28.0134 15.4137 28.0134C15.627 28.0134 15.8404 28.0134 16.0537 28.0001C22.6804 27.6534 28.0537 22.0001 28.0537 15.3734C28.0537 8.74672 23.0137 3.98672 16.6804 3.98672L16.667 3.97339ZM11.4937 14.2801V13.3601C11.4937 10.5601 13.1337 8.62672 16.0004 8.46672C16.1337 8.46672 16.2537 8.46672 16.3737 8.46672C19.0137 8.46672 20.5604 10.0001 20.5604 12.4934C20.5604 14.1201 19.827 15.2401 18.6137 16.7067C17.7204 17.8134 17.1737 18.5467 17.1337 19.3201L14.947 19.4401C15.0004 18.1734 15.6004 17.2001 16.667 15.9467C17.7204 14.7201 18.2404 13.8667 18.2404 12.6934C18.2404 11.2667 17.4537 10.4134 16.147 10.4134C16.0937 10.4134 16.0404 10.4134 15.987 10.4134C14.5737 10.4934 13.7337 11.4934 13.7337 13.3734V14.1734L11.507 14.2934L11.4937 14.2801ZM14.6404 23.5867V20.9334L17.3204 20.7867V23.4401L14.6404 23.5867Z" fill="#212322"/>
</svg>
