<svg width="24" height="24" viewBox="0 0 24 24" fill="none" xmlns="http://www.w3.org/2000/svg">
<g clip-path="url(#clip0_1895_115984)">
<path d="M22.4633 11.4196C22.3819 9.86606 21.6688 8.41646 20.6284 7.47961C19.5881 6.54275 18.072 5.9848 16.5185 6.06611L12.8465 6.25832L12.95 8.23549L16.6219 8.04332C17.6105 7.99158 18.547 8.29662 19.2901 8.96581C20.0332 9.63499 20.4343 10.5345 20.486 11.5231C20.5378 12.5117 20.2328 13.4481 19.5636 14.1912C18.8944 14.9343 17.9949 15.3355 17.0063 15.3872L13.3344 15.5794L13.4378 17.5566L17.1098 17.3644C20.1499 17.2761 22.559 14.6009 22.4633 11.4196Z" fill="black"/>
<path d="M7.544 15.8824C6.55541 15.9342 5.54465 15.5622 4.87586 14.96C4.13276 14.2908 3.73163 13.3913 3.67989 12.4027C3.62815 11.4141 3.9332 10.4776 4.60238 9.73451C5.27156 8.99141 6.17105 8.59031 7.15965 8.53857L10.8316 8.34636L10.7281 6.3692L7.05618 6.56136C3.94916 6.72398 1.54008 9.39916 1.63578 12.5805C1.71709 14.134 2.43026 15.5836 3.47059 16.5204C4.51093 17.4573 6.02706 18.0152 7.58056 17.9339L11.2525 17.7417L11.149 15.7646L7.544 15.8824Z" fill="black"/>
<path d="M15.5948 12.7704L13.1196 12.8291L11.0012 12.94L8.53339 13.14L8.42993 11.1628L10.8977 10.9628L13.0161 10.8519L15.4913 10.7932L15.5948 12.7704Z" fill="black"/>
</g>
<defs>
<clipPath id="clip0_1895_115984">
<rect width="24" height="24" fill="white"/>
</clipPath>
</defs>
</svg>
