<svg width="16" height="16" viewBox="0 0 16 16" fill="none" xmlns="http://www.w3.org/2000/svg">
  <path
    d="M7.70734 13.34C4.89401 13.34 2.69401 11.1333 2.69401 8.31333C2.69401 5.35333 5.10068 2.82 8.06068 2.66666C8.15401 2.66666 8.25401 2.66 8.34734 2.66C11.1607 2.66 13.3607 4.86666 13.3607 7.68666C13.3607 10.6467 10.954 13.18 7.99401 13.3333C7.90068 13.3333 7.80068 13.34 7.70734 13.34ZM6.66734 9.83333V12.5L9.34068 12.36V9.7H9.24734C9.26068 9.51333 9.52734 9.17333 9.84068 8.78C10.4273 8.06666 10.9673 7.33333 10.9673 6.25333C10.9673 4.62666 9.88734 3.57333 8.20734 3.57333C8.13401 3.57333 8.06068 3.57333 7.98734 3.57333C6.23401 3.66666 5.10068 4.88666 5.10068 6.68666V7.84666L7.54734 7.72V6.68666C7.54734 5.9 7.88068 5.88 8.04068 5.87333H8.08734C8.24068 5.87333 8.46734 5.87333 8.46734 6.34666C8.46734 6.7 8.32068 6.98 7.84068 7.54C7.23401 8.26 6.85401 8.87333 6.82068 9.7V9.83333L6.66734 9.84V9.83333Z"
    fill="currentColor" />
  <path
    d="M11.0207 4.22666C12.0407 5.02 12.6873 6.26 12.6873 7.68666C12.6873 9.56666 11.5873 11.2467 10.0007 12.0933V9.64666C10.114 9.48666 10.274 9.29333 10.3407 9.20666C10.9873 8.42666 11.6207 7.55333 11.6207 6.24666C11.6207 5.46666 11.414 4.78 11.014 4.22666M4.86734 4.76666C4.57401 5.31333 4.42068 5.96666 4.42068 6.68666V8.54666L5.82068 8.47333L6.42734 8.44C6.32734 8.67333 6.24734 8.92 6.19401 9.18666L5.98734 9.2V12.3333C4.42068 11.68 3.34734 10.1467 3.34734 8.31333C3.34734 6.94666 3.93401 5.68 4.86068 4.76666M8.33401 1.98666C8.22734 1.98666 8.12068 1.98666 8.01401 1.99333C4.70734 2.17333 2.02734 5 2.02734 8.31333C2.02734 11.6267 4.54068 14.0067 7.70734 14.0067C7.81401 14.0067 7.92068 14.0067 8.02734 14C11.3407 13.8267 14.0273 11 14.0273 7.68666C14.0273 4.37333 11.5073 1.99333 8.34068 1.99333L8.33401 1.98666ZM5.74734 7.14V6.68C5.74734 5.28 6.56734 4.31333 8.00068 4.23333C8.06734 4.23333 8.12734 4.23333 8.18734 4.23333C9.50734 4.23333 10.2807 5 10.2807 6.24666C10.2807 7.06 9.91401 7.62 9.30734 8.35333C8.86068 8.90666 8.58734 9.27333 8.56734 9.66L7.47401 9.72C7.50068 9.08666 7.80068 8.6 8.33401 7.97333C8.86068 7.36 9.12068 6.93333 9.12068 6.34666C9.12068 5.63333 8.72734 5.20666 8.07401 5.20666C8.04734 5.20666 8.02068 5.20666 7.99401 5.20666C7.28734 5.24666 6.86734 5.74666 6.86734 6.68666V7.08666L5.75401 7.14666L5.74734 7.14ZM7.32068 11.7933V10.4667L8.66068 10.3933V11.72L7.32068 11.7933Z"
    fill="currentColor" />
</svg>
