<svg width="24" height="24" viewBox="0 0 24 24" fill="none" xmlns="http://www.w3.org/2000/svg">
<path d="M8 2.19995V14.1C8.61978 14.7197 9.05952 15.0994 9.59818 15.5645C9.75482 15.6998 9.91982 15.8423 10.1 15.9999L22 15.3999V17.3999L18 17.6V21.6L16 21.7V17.7L9.20001 18.1C8.85163 17.7784 8.54634 17.4999 8.26296 17.2414C7.48892 16.5353 6.87842 15.9784 6 15.1V8.29995L2 8.49995V6.49995L6 6.29995V2.29995L8 2.19995Z" fill="#212322"/>
<path d="M18 14.2L16 14.2999V7.79995L9.5 8.19995V6.19995L18 5.69995V14.2Z" fill="#212322"/>
</svg>
