<svg width="24" height="24" viewBox="0 0 24 24" fill="none" xmlns="http://www.w3.org/2000/svg">
<path d="M10.9996 1.9999L12.9996 1.8999V3.8999L10.9996 3.9999V1.9999Z" fill="black"/>
<path d="M9.09961 7.09991L6.99963 9.29991L8.8996 11.0999L10.9996 8.89991L9.09961 7.09991Z" fill="black"/>
<path d="M12.1996 9.99988L10.0996 12.1999L18.0996 19.7999L20.1996 17.5999L12.1996 9.99988Z" fill="black"/>
<path d="M7.09961 5.89988L5.69965 4.49988L4.29962 5.99988L5.69965 7.39988L7.09961 5.89988Z" fill="black"/>
<path d="M4.09961 13.3999L2.09961 13.4999V11.4999L4.09961 11.3999V13.3999Z" fill="black"/>
<path d="M4.29962 18.6999L5.69965 20.0999L7.09961 18.5999L5.69965 17.1999L4.29962 18.6999Z" fill="black"/>
<path d="M18.3996 3.8999L19.7996 5.19991L18.3996 6.69991L16.9996 5.3999L18.3996 3.8999Z" fill="black"/>
</svg>
