<svg width="24" height="24" viewBox="0 0 24 24" fill="none" xmlns="http://www.w3.org/2000/svg">
<path d="M11.5031 7.49371C11.3248 7.52095 11.1624 7.54577 11 7.5999L9.80002 6.29991L8.20001 4.79991C9.40001 4.19991 10.7 3.89991 12 3.79991C16.5 3.59991 20.4 6.69991 22 11.2999C21.4 12.9999 20.6 14.3999 19.6 15.6999L18.2 14.4L16.4 12.6999C16.5 12.3999 16.5 11.9999 16.5 11.6999C16.5 9.19994 14.5 7.29995 12 7.39995C11.8165 7.44582 11.6541 7.47063 11.5031 7.49371Z" fill="#212322"/>
<path fill-rule="evenodd" clip-rule="evenodd" d="M18.3 17.2999L20 19.0999L18.6 20.5999L16.5 18.5999C15.2 19.3999 13.6 19.8999 12 19.9999C7.5 20.1999 3.6 17.0999 2 12.4999C2.6 10.5999 3.59999 8.89994 4.89999 7.49994L3.10001 5.79993L4.5 4.29993L6.39999 6.09991L7.80002 7.49994L9.10001 8.69995L10.2 9.69995L14.4 13.7L15.5 14.7L18.3 17.2999ZM7.5 12.2C7.5 14.7 9.5 16.5999 12 16.4999C12.7 16.3999 13.3 16.1999 13.8 15.9999L12.6 14.9C12.5 14.9 12.4 14.925 12.3 14.95C12.2 14.9749 12.1 14.9999 12 14.9999C10.3 15.0999 9 13.9 9 12.2C9 12.0348 9.03031 11.8999 9.05755 11.7787C9.0798 11.6797 9.10001 11.5898 9.10001 11.4999L7.89999 10.4C7.59999 10.9 7.5 11.5 7.5 12.2Z" fill="#212322"/>
</svg>
