<svg width="16" height="16" viewBox="0 0 16 16" fill="none" xmlns="http://www.w3.org/2000/svg">
<path d="M10 6.26656L14 6.06657V2.06657L12.6667 2.13326V3.99992C12.4667 3.73325 12.2 3.53325 12 3.33325C10.9333 2.39992 9.46667 1.93325 8 1.99992C4.66667 2.19992 2 4.99992 2 8.33325C2 11.6666 4.66667 14.1999 8 13.9999C11.3333 13.7999 14 10.9332 14 7.59989L12.6667 7.66658C12.6667 10.2666 10.6 12.5333 8 12.6666C5.4 12.7999 3.33333 10.7999 3.33333 8.26656C3.33333 5.66656 5.4 3.46659 8 3.33325C9.13333 3.26659 10.2667 3.66659 11.0667 4.33325C11.2667 4.46659 11.4 4.66659 11.5333 4.79993L10 4.86658V6.26656Z" fill="black"/>
</svg>
