<svg width="24" height="24" viewBox="0 0 24 24" fill="none" xmlns="http://www.w3.org/2000/svg">
<path d="M19.3998 4.59998C18.2998 3.49998 16.7998 2.90002 15.3998 2.90002C13.9998 2.90002 12.4998 3.49998 11.3998 4.59998L8.7998 7.20001L10.1998 8.59998L12.7998 6C13.4998 5.3 14.3998 4.90002 15.3998 4.90002C16.3998 4.90002 17.2998 5.3 17.9998 6C18.6998 6.7 19.0998 7.59998 19.0998 8.59998C19.0998 9.59998 18.6998 10.5 17.9998 11.2L15.3998 13.8L16.7998 15.2L19.3998 12.6C21.5998 10.5 21.5998 6.89998 19.3998 4.59998Z" fill="currentColor"/>
<path d="M11.2998 17.9C10.5998 18.6 9.5998 19 8.6998 19C7.6998 19 6.79981 18.6 6.09981 17.9C5.39981 17.2 4.99981 16.3 4.99981 15.3C4.99981 14.3 5.39981 13.4 6.09981 12.7L8.6998 10.1L7.29981 8.70001L4.6998 11.3C2.4998 13.5 2.4998 17.1 4.6998 19.4C5.7998 20.5 7.2998 21.1 8.6998 21.1C10.0998 21.1 11.5998 20.5 12.6998 19.4L15.2998 16.8L13.8998 15.4L11.2998 17.9Z" fill="currentColor"/>
<path d="M15.1998 10.2L13.3998 11.9L11.8998 13.4L10.1998 15.2L8.7998 13.8L10.4998 12L11.9998 10.5L13.7998 8.79999L15.1998 10.2Z" fill="currentColor"/>
</svg>
