<svg width="24" height="24" viewBox="0 0 24 24" fill="none" xmlns="http://www.w3.org/2000/svg">
<path fill-rule="evenodd" clip-rule="evenodd" d="M15.15 2.88501H15C13.6816 2.94494 12.5547 3.86683 12.155 5.07673L4.5 5.48499V7.38499L12.1589 6.97652C12.5474 8.08832 13.605 8.88501 14.85 8.88501H15C16.3258 8.82474 17.458 7.89282 17.8516 6.67291L19.5 6.585V4.685L17.8049 4.7754C17.3947 3.67307 16.3882 2.88501 15.15 2.88501ZM14.95 6.88501C14.852 6.88501 14.7574 6.87019 14.6685 6.84268C14.2811 6.72282 14 6.36199 14 5.93501C14 5.48419 14.3023 5.08376 14.7143 4.94024C14.8049 4.90866 14.9008 4.88952 15 4.88501H15.05C15.1259 4.88501 15.1991 4.89388 15.269 4.91065C15.6828 5.00992 15.9786 5.38587 16 5.83501C16 6.26345 15.7269 6.64637 15.3463 6.80653C15.2382 6.85197 15.1216 6.87948 15 6.88501H14.95Z" fill="#212322"/>
<path fill-rule="evenodd" clip-rule="evenodd" d="M4.5 19.285V17.385L6.15466 17.3078C6.554 16.0974 7.68117 15.1749 9 15.115H9.14999C10.4024 15.115 11.4178 15.9212 11.8188 17.0435L19.5 16.685V18.485L11.8549 18.8927C11.4643 20.1176 10.3295 21.0546 9 21.115H8.84999C7.60133 21.115 6.54123 20.3136 6.15554 19.1967L4.5 19.285ZM8.64215 19.0641C8.73868 19.0971 8.84223 19.115 8.95 19.115H9C9.13139 19.109 9.25708 19.0774 9.37228 19.0251C9.73933 18.8588 10 18.4836 10 18.065C9.97978 17.6404 9.71425 17.2812 9.33568 17.1593C9.24619 17.1305 9.15038 17.115 9.05 17.115H9C8.88078 17.1204 8.76625 17.147 8.66 17.1909C8.27605 17.3494 8 17.7342 8 18.165C8 18.5822 8.26843 18.9363 8.64215 19.0641Z" fill="#212322"/>
<path d="M4.5 13.285V11.485L19.5 10.685V12.585L4.5 13.285Z" fill="#212322"/>
</svg>
