<svg width="24" height="24" viewBox="0 0 24 24" fill="none" xmlns="http://www.w3.org/2000/svg">
  <path
    d="M21.9996 17.7C21.9996 17.6 21.9996 17.6 21.9996 17.7C21.9996 17.5 21.9996 17.3 21.8996 17.1C21.8996 17 21.8996 17 21.7996 16.9C21.7996 16.8 21.6996 16.7 21.6996 16.5C21.6996 16.4 21.5996 16.4 21.5996 16.3C21.4996 16.2 21.4996 16.1 21.3996 16C21.3996 15.9 21.2996 15.9 21.2996 15.8C21.1996 15.7 21.1996 15.6 21.0996 15.6C20.9996 15.5 20.9996 15.5 20.8996 15.4C20.7996 15.3 20.6996 15.3 20.6996 15.2C20.5996 15.2 20.5996 15.1 20.4996 15.1C20.3996 15.1 20.2996 15 20.1996 15C20.0996 15 19.9996 14.9 19.9996 14.9C19.8996 14.9 19.7996 14.8 19.6996 14.8C19.5996 14.8 19.4996 14.8 19.3996 14.8C19.2996 14.8 19.1996 14.8 19.1996 14.8C19.0996 14.8 19.0996 14.8 18.9996 14.8C18.7996 14.8 18.5996 14.8 18.4996 14.9L14.2996 7.59998C14.7996 6.99998 15.0996 6.29998 15.0996 5.59998C15.0996 5.39998 15.0996 5.2 14.9996 5C14.9996 4.9 14.9996 4.89999 14.8996 4.79999C14.8996 4.69999 14.7996 4.59996 14.7996 4.39996C14.7996 4.29996 14.6996 4.29995 14.6996 4.19995C14.5996 4.09995 14.5996 3.99996 14.4996 3.89996C14.4996 3.79996 14.3996 3.79995 14.3996 3.69995C14.2996 3.59995 14.2996 3.5 14.1996 3.5C14.0996 3.4 14.0996 3.39999 13.9996 3.29999C13.8996 3.19999 13.7996 3.19998 13.7996 3.09998C13.6996 3.09998 13.6996 3 13.5996 3C13.4996 3 13.3996 2.89996 13.2996 2.89996C13.1996 2.89996 13.0996 2.79999 13.0996 2.79999C12.9996 2.79999 12.8996 2.69995 12.7996 2.69995C12.6996 2.69995 12.5996 2.69995 12.4996 2.69995C12.3996 2.69995 12.2996 2.69995 12.2996 2.69995C12.1996 2.69995 12.1996 2.69995 12.0996 2.69995C10.3996 2.79995 9.09961 4.19996 9.09961 5.89996C9.09961 6.09996 9.0996 6.3 9.1996 6.5C9.1996 6.6 9.19961 6.59995 9.29961 6.69995C9.29961 6.79995 9.3996 6.89998 9.3996 7.09998C9.3996 7.19998 9.4996 7.19999 9.4996 7.29999C9.5996 7.39999 9.5996 7.49998 9.6996 7.59998C9.6996 7.69998 9.79961 7.69999 9.79961 7.79999L9.8996 7.89996L5.59961 15.7H5.4996C5.3996 15.7 5.29961 15.7 5.29961 15.7C5.19961 15.7 5.19961 15.7 5.09961 15.7C3.39961 15.8 2.09961 17.2 2.09961 18.9C2.09961 19.1 2.0996 19.3 2.1996 19.5C2.1996 19.6 2.19961 19.6 2.29961 19.7C2.29961 19.8 2.3996 19.9 2.3996 20.1C2.3996 20.2 2.4996 20.2 2.4996 20.3C2.5996 20.4 2.5996 20.5 2.6996 20.6C2.6996 20.7 2.7996 20.7 2.8996 20.8C2.9996 20.9 2.99961 21 3.09961 21C3.19961 21.1 3.19961 21.1 3.29961 21.2C3.39961 21.3 3.4996 21.3 3.4996 21.4C3.5996 21.4 3.5996 21.5 3.6996 21.5C3.7996 21.5 3.8996 21.6 3.9996 21.6C4.0996 21.6 4.1996 21.7 4.1996 21.7C4.2996 21.7 4.3996 21.8 4.4996 21.8C4.5996 21.8 4.69961 21.8 4.79961 21.8C4.89961 21.8 4.9996 21.8 4.9996 21.8C5.0996 21.8 5.0996 21.8 5.1996 21.8C6.4996 21.7 7.5996 20.8 7.9996 19.7L16.3996 19.3V19.4C16.3996 19.5 16.4996 19.5 16.4996 19.6C16.5996 19.7 16.5996 19.8 16.6996 19.9C16.6996 20 16.7996 20 16.8996 20.1C16.9996 20.2 16.9996 20.3 17.0996 20.3C17.1996 20.4 17.1996 20.4 17.2996 20.5C17.3996 20.6 17.4996 20.6 17.4996 20.7C17.5996 20.7 17.5996 20.8 17.6996 20.8C17.7996 20.8 17.8996 20.9 17.9996 20.9C18.0996 20.9 18.1996 21 18.1996 21C18.2996 21 18.3996 21.1 18.4996 21.1C18.5996 21.1 18.6996 21.1 18.7996 21.1C18.8996 21.1 18.9996 21.1 18.9996 21.1C19.0996 21.1 19.0996 21.1 19.1996 21.1C20.6996 20.7 21.9996 19.3 21.9996 17.7ZM7.79961 17.4V17.3C7.79961 17.2 7.6996 17.2 7.6996 17.1C7.5996 17 7.5996 16.9 7.4996 16.8C7.4996 16.7 7.39961 16.7 7.29961 16.6L7.1996 16.5L11.4996 8.69995H11.5996C11.6996 8.69995 11.7996 8.69995 11.7996 8.69995C11.8996 8.69995 11.8996 8.69995 11.9996 8.69995C12.1996 8.69995 12.3996 8.69998 12.4996 8.59998L16.6996 15.9C16.5996 16 16.4996 16.1 16.3996 16.2C16.2996 16.4 16.1996 16.6 16.0996 16.9L7.79961 17.4Z"
    fill="currentColor" />
</svg>
