<svg width="24" height="24" viewBox="0 0 24 24" fill="none" xmlns="http://www.w3.org/2000/svg">
<path d="M17.3 5.70004L16 5.80005V2.80005L14 2.90005V5.90005L8 6.20004V3.20004L6 3.30005V6.30005L3.5 6.40005V17.7C4.7 18.9 5.4 19.5 6.7 20.7L20.5 20.0001V8.70004C19.3 7.60004 18.6 6.90004 17.3 5.70004ZM9.7 9.40005C9.9 9.10005 10.2 8.80007 10.4 8.60007C10.8 8.30007 11.4 8.10006 11.9 8.00006C12.4 7.90006 13 8.10005 13.4 8.40005C13.7 8.60005 13.9 8.80007 14.1 9.10007C14.4 9.50007 14.6 10.0001 14.6 10.6001C14.6 12.1001 13.4 13.4001 11.8 13.5001C10.3 13.6001 9 12.4001 9 10.9001C9.3 10.3001 9.4 9.80006 9.7 9.40005ZM18.5 18.2L7.5 18.8C6.7 18.1 6.3 17.7001 5.5 16.9001L12 14.6001L18.5 16.3V18.2Z" fill="currentColor"/>
</svg>
