<svg width="24" height="24" viewBox="0 0 24 24" fill="none" xmlns="http://www.w3.org/2000/svg">
  <path
    d="M13.5 6L11 6.10001L10.5 6.5L9 5.10001L10.2 4.10001H11.2V2H13.2V4L14.2 3.9L18.2 7V11.7L20.2 13.6V15.5L16.2 11.8V8L13.5 6Z"
    fill="currentColor" />
  <path fill-rule="evenodd" clip-rule="evenodd"
    d="M9 7.8L20.6 18.6L19.3 20L16.8 17.7L7.3 18.2C6.95171 17.8785 6.64649 17.6001 6.36318 17.3416C5.58913 16.6355 4.97841 16.0784 4.09999 15.2V14.4L6.09999 12.3V7.9L4 6L5.39999 4.5L7.5 6.4L9 7.8ZM6.59999 14.8L7.09999 15.3L8.09999 16.2L14.8 15.9L8.2 9.8V13.1L7.59999 13.7L6.59999 14.8Z"
    fill="currentColor" />
  <path
    d="M9.69998 20.1V20.3C9.69998 20.35 9.72498 20.4 9.74998 20.45C9.77499 20.5 9.79999 20.55 9.79999 20.6C9.79999 20.65 9.82499 20.675 9.84998 20.7C9.87498 20.725 9.89998 20.75 9.89998 20.8C9.89998 20.9 9.99998 21 9.99998 21C9.99998 21.05 10.025 21.075 10.05 21.1C10.075 21.125 10.1 21.15 10.1 21.2L10.3 21.4C10.3 21.4 10.3932 21.4932 10.4896 21.4996C10.4929 21.4999 10.4964 21.5 10.5 21.5C10.5 21.5 10.5 21.5 10.5 21.5L10.7 21.7C10.75 21.7 10.775 21.725 10.8 21.75C10.825 21.775 10.85 21.8 10.9 21.8C11 21.8 11.1 21.9 11.1 21.9C11.2 21.9 11.2 21.9 11.3 22C11.35 22 11.4 22.025 11.45 22.05C11.5 22.075 11.55 22.1 11.6 22.1H12.1C12.4 22.1 12.8 22 13.1 21.9C13.4 21.8 13.7 21.6 13.9 21.3C14.1 21.1 14.3 20.8 14.4 20.5C14.5 20.2 14.6 19.9 14.6 19.5L9.59998 19.8C9.69998 19.8 9.69998 20 9.69998 20.1Z"
    fill="currentColor" />
</svg>
