<svg width="24" height="24" viewBox="0 0 24 24" fill="none" xmlns="http://www.w3.org/2000/svg">
<path fill-rule="evenodd" clip-rule="evenodd" d="M17 16.8L6.20001 17.4C5.32159 16.5216 4.71109 15.9647 3.93703 15.2586C3.65366 15.0001 3.34838 14.7216 3 14.4V3.60001L13.8 3C14.6784 3.87839 15.2889 4.43529 16.0629 5.14136C16.3463 5.39986 16.6516 5.67842 17 6V16.8ZM15 7.40002L5 7.90002V6.40002L15 5.90002V7.40002ZM5 11.4L15 10.9V9.40002L5 9.90002V11.4ZM10 14.6L5 14.8V13.3L10 13.1V14.6Z" fill="black"/>
<path d="M19 5.90002H21V20.6L6.09998 21.3V19.3L19 18.7V5.90002Z" fill="black"/>
</svg>
