<svg width="16" height="16" viewBox="0 0 16 16" fill="none" xmlns="http://www.w3.org/2000/svg">
<path fill-rule="evenodd" clip-rule="evenodd" d="M11.667 4.79997L11.6664 4.79942C11.3334 4.46642 11.1335 4.2665 10.867 4.06661L10.3337 3.53328V2.19995L9.00033 2.2666V3.59993L4.33366 3.86662V2.53328L3.00033 2.59993V3.93327L1.66699 3.99996V9.19995C2.25261 9.78557 2.65961 10.1568 3.17565 10.6276C3.36456 10.7999 3.56808 10.9856 3.80033 11.2L11.667 10.8V4.79997ZM4.33366 8.1333V9.46663L3.00033 9.53328V8.19995L4.33366 8.1333ZM4.33366 6.79997L3.00033 6.86662V5.53328L4.33366 5.46663V6.79997ZM7.33366 7.99996V9.33329L6.00033 9.39994V8.06661L7.33366 7.99996ZM7.33366 6.66663L6.00033 6.73328V5.39994L7.33366 5.33329V6.66663ZM10.3337 7.86662V9.19995L9.00033 9.2666V7.93327L10.3337 7.86662ZM10.3337 6.53328L9.00033 6.59993V5.2666L10.3337 5.19995V6.53328Z" fill="currentColor"/>
<path d="M13.0003 12.0666V4.99996L14.3337 4.93327V13.3333L4.00033 13.8666V12.5333L13.0003 12.0666Z" fill="currentColor"/>
</svg>
