<svg width="16" height="17" viewBox="0 0 16 17" fill="none" xmlns="http://www.w3.org/2000/svg">
  <path fill-rule="evenodd" clip-rule="evenodd"
    d="M4.83203 5.99999V4.99999C4.83203 4.47554 4.98526 3.69998 5.4596 3.04118C5.9523 2.35687 6.76907 1.83333 7.9987 1.83333C9.22832 1.83333 10.0451 2.35687 10.5378 3.04118C11.0121 3.69998 11.1654 4.47554 11.1654 4.99999V5.99999H12.6654V14.6667H3.33203V5.99999H4.83203ZM5.83203 4.99999C5.83203 4.63556 5.94547 4.07778 6.27113 3.62548C6.57843 3.19867 7.09499 2.83333 7.9987 2.83333C8.9024 2.83333 9.41896 3.19867 9.72626 3.62548C10.0519 4.07778 10.1654 4.63556 10.1654 4.99999V5.99999H5.83203V4.99999ZM8.4987 10.1995C8.7976 10.0266 8.9987 9.70347 8.9987 9.33333C8.9987 8.78104 8.55098 8.33333 7.9987 8.33333C7.44641 8.33333 6.9987 8.78104 6.9987 9.33333C6.9987 9.70347 7.1998 10.0266 7.4987 10.1995V12.3333H8.4987V10.1995Z"
    fill="currentColor" />
</svg>
