<svg width="16" height="16" viewBox="0 0 16 16" fill="none" xmlns="http://www.w3.org/2000/svg">
  <path
    d="M13.3332 10.3333V9.06659L11.9999 7.79992V4.66659L9.33319 2.59992L8.66652 2.66659V1.33325H7.33319V2.73326H6.66652L5.86654 3.39992L6.86654 4.33325L10.6665 7.86659L13.3332 10.3333Z"
    fill="currentColor" />
  <path
    d="M4.86654 4.26659L5.86654 5.19992L13.6665 12.3333L12.7332 13.3333L11.0665 11.7999L4.73319 12.1333C4.50108 11.919 4.29766 11.7334 4.10884 11.5612C3.59273 11.0904 3.18555 10.7189 2.59987 10.1333V9.59992L3.93321 8.19992V5.26659L2.5332 3.99992L3.46653 2.99992L4.86654 4.26659Z"
    fill="currentColor" />
  <path
    d="M6.33321 13.5333V13.3999C6.33321 13.3332 6.33321 13.1999 6.26656 13.1999L9.59989 12.9999C9.59989 13.2666 9.53323 13.4666 9.46657 13.6665C9.3999 13.8665 9.26655 14.0666 9.13322 14.1999C8.99989 14.3999 8.79989 14.5333 8.59989 14.5999C8.39989 14.6666 8.13323 14.7333 7.93323 14.7333H7.59989C7.56656 14.7333 7.53322 14.7166 7.49989 14.6999C7.46655 14.6833 7.43322 14.6666 7.39988 14.6666C7.36157 14.6283 7.34525 14.612 7.32566 14.605C7.31118 14.5999 7.29489 14.5999 7.26656 14.5999C7.26656 14.5999 7.26656 14.5999 7.26656 14.5999C7.20041 14.5999 7.13422 14.5343 7.13319 14.5333C7.09988 14.5332 7.08321 14.5166 7.06655 14.4999C7.04988 14.4833 7.03321 14.4666 6.99988 14.4666L6.86656 14.3333C6.86392 14.3333 6.86137 14.3332 6.85894 14.333C6.79542 14.3283 6.73422 14.2676 6.73323 14.2666L6.59989 14.1333C6.59989 14.0999 6.58323 14.0833 6.56656 14.0666C6.54989 14.0499 6.53322 14.0333 6.53322 13.9999C6.53322 13.9999 6.46655 13.9333 6.46655 13.8666C6.46655 13.8333 6.44988 13.8166 6.43322 13.7999C6.41655 13.7833 6.39988 13.7666 6.39988 13.7333C6.39988 13.6999 6.38321 13.6666 6.36655 13.6333C6.34988 13.5999 6.33321 13.5666 6.33321 13.5333Z"
    fill="currentColor" />
  <path d="M6.73323 14.2666C6.73322 14.2666 6.73324 14.2666 6.73323 14.2666V14.2666Z" fill="currentColor" />
</svg>
