<svg width="16" height="16" viewBox="0 0 16 16" fill="none" xmlns="http://www.w3.org/2000/svg">
<path fill-rule="evenodd" clip-rule="evenodd" d="M7.33316 11.5199L6.8665 11.3733C6.7265 11.3266 6.5865 11.2799 6.45983 11.2133L6.01983 10.9999L4.8665 12.2133L4.47316 12.2266L3.75316 11.5466L5.1465 10.0799L4.9665 9.67327C4.91983 9.55994 4.87316 9.45328 4.83316 9.33327L4.67316 8.84661L2.65316 8.95328V7.61994L4.69316 7.51328L4.83316 7.07327C4.87316 6.95327 4.91983 6.83327 4.9665 6.71327L5.1465 6.28661L3.7465 4.95994L4.71316 3.93994L6.05983 5.21327L6.49316 4.95994C6.6265 4.87994 6.7665 4.81327 6.91316 4.75327L7.31983 4.57994V2.71994L8.65316 2.65327V4.48661L9.11983 4.63327C9.25983 4.67994 9.39983 4.72661 9.5265 4.79327L9.9665 5.00661L11.1198 3.79327L11.5065 3.77994L12.2265 4.45994L10.8332 5.92661L11.0198 6.33327C11.0665 6.43994 11.1132 6.55328 11.1532 6.67327L11.3132 7.15994L13.3332 7.05328V8.38661L11.2932 8.49327L11.1532 8.93327C11.1132 9.05328 11.0665 9.17327 11.0198 9.29327L10.8332 9.71994L12.2332 11.0466L11.2665 12.0666L9.91983 10.7933L9.4865 11.0466C9.35316 11.1266 9.21316 11.1933 9.0665 11.2533L8.65983 11.4266V13.2866L7.3265 13.3533V11.5199H7.33316ZM5.99983 6.09994V10.0999L9.99983 9.89328V5.89328L5.99983 6.09994Z" fill="currentColor"/>
<path d="M7.99983 3.34661V4.96661L8.9265 5.26661C8.9265 5.26661 8.9665 5.27994 8.97983 5.28661L7.1465 5.37994C7.1465 5.37994 7.17316 5.36661 7.1865 5.35994L7.99983 5.01327V3.34661ZM4.75316 4.87994L5.37316 5.46661H5.3265V5.51994L5.27983 5.47327L4.69983 4.92661L4.7465 4.87327M10.6598 7.31994L10.8332 7.84661H10.7932L10.6665 8.25994V7.32661M5.33316 7.73994V8.67327L5.15983 8.15327H5.19983L5.3265 7.73994M10.6598 10.4799L10.7065 10.5266L11.2865 11.0733L11.2398 11.1266L10.6198 10.5399H10.6665V10.4866M8.85316 10.6333C8.85316 10.6333 8.8265 10.6466 8.81316 10.6533L7.99983 10.9999V11.0466L7.07316 10.7466C7.07316 10.7466 7.03316 10.7333 7.01983 10.7266L8.85316 10.6333ZM9.33316 1.94661L6.6665 2.08661V4.13994C6.49316 4.21327 6.3265 4.29327 6.1665 4.38661L4.7065 2.99994L2.81983 4.98661L4.3665 6.45328C4.3065 6.59328 4.25316 6.73328 4.2065 6.87328L1.99316 6.98661V9.65327L4.2065 9.53994C4.25316 9.67994 4.3065 9.81328 4.3665 9.94661L2.81983 11.5733L4.21983 12.8999C4.5865 12.8933 4.79316 12.8866 5.15983 12.8733L6.1665 11.8199C6.3265 11.8999 6.49316 11.9599 6.6665 12.0133V14.0666L9.33316 13.9266V11.8733C9.5065 11.7999 9.67316 11.7199 9.83316 11.6266L11.2932 13.0133L13.1798 11.0266L11.6332 9.55994C11.6932 9.41994 11.7465 9.27994 11.7932 9.13994L14.0065 9.02661V6.35994L11.7932 6.47328C11.7465 6.33327 11.6932 6.19994 11.6332 6.06661L13.1798 4.43994L11.7798 3.11327C11.4132 3.11994 11.2065 3.12661 10.8398 3.13994L9.83316 4.19327C9.67316 4.11327 9.5065 4.05327 9.33316 3.99994V1.93994V1.94661ZM6.6665 9.41327V6.74661L9.33316 6.60661V9.27327L6.6665 9.41327Z" fill="currentColor"/>
</svg>
