<svg width="24" height="24" viewBox="0 0 24 24" fill="none" xmlns="http://www.w3.org/2000/svg">
  <path
    d="M19.4004 6.10006V4.60006H21.1004V9.00006L18.4004 9.10006V7.50006C17.8004 6.70006 16.9004 6.00006 15.8004 5.30006C14.6004 4.60006 13.3004 4.20006 12.1004 4.30006C11.1004 4.30006 10.1004 4.60006 9.20038 5.00006C8.30038 5.40006 7.50035 6.00006 6.80035 6.70006C6.10035 7.40006 5.60038 8.20006 5.20038 9.10006C4.80038 10.0001 4.6004 11.0001 4.6004 12.0001V12.2001L3.00037 12.3001V12.1001C3.00037 10.9001 3.20038 9.70006 3.70038 8.60006C4.10038 7.50006 4.8004 6.50006 5.6004 5.60006C6.4004 4.70006 7.40037 4.00006 8.50037 3.50006C9.60037 3.00006 10.8004 2.70006 12.0004 2.60006C13.5004 2.50006 15.0004 2.90006 16.4004 3.70006C17.6004 4.40006 18.6004 5.20006 19.4004 6.10006Z"
    fill="currentColor" />
  <path fill-rule="evenodd" clip-rule="evenodd"
    d="M16.9004 10.7C17.4004 10.7 17.7004 10.4 17.7004 9.80004C17.7004 9.10004 17.4004 8.80004 16.9004 8.90004C16.4004 8.90004 16.1004 9.20004 16.1004 9.80004C16.1004 10.4 16.4004 10.7 16.9004 10.7ZM17.0004 9.20004C17.2004 9.20004 17.3004 9.40004 17.3004 9.70004V9.90004C17.3004 10.2 17.2004 10.4 17.0004 10.4C16.8004 10.4 16.7004 10.2 16.7004 9.90004V9.70004C16.7004 9.40004 16.8004 9.20004 17.0004 9.20004Z"
    fill="currentColor" />
  <path fill-rule="evenodd" clip-rule="evenodd"
    d="M15.9004 12.1001C15.9004 14.0001 15.2004 15.1001 13.8004 15.2001C12.4004 15.3001 11.6004 14.2001 11.6004 12.3001V12.1001C11.6004 10.2001 12.3004 9.10005 13.8004 9.00005C15.2004 8.90005 15.9004 10.0001 15.9004 11.9001V12.1001ZM12.6004 12.3001C12.6004 13.6001 12.9004 14.4001 13.7004 14.4001C14.5004 14.4001 14.8004 13.5001 14.8004 12.2001V11.8001C14.8004 10.5001 14.5004 9.70006 13.7004 9.70006C12.9004 9.70006 12.6004 10.6001 12.6004 11.9001V12.3001Z"
    fill="currentColor" />
  <path fill-rule="evenodd" clip-rule="evenodd"
    d="M11.1004 12V12.2C11.1004 14.1 10.4004 15.3 9.00037 15.4C7.80037 15.5 7.20038 14.7 7.20038 13.6H8.1004C8.1004 14.3 8.40037 14.7 9.00037 14.7C9.90037 14.7 10.2004 13.8 10.2004 12.3C10.0004 12.8 9.50039 13.2 8.90039 13.2C7.80039 13.3 7.1004 12.6 7.1004 11.4C7.1004 10.2 7.90037 9.30003 9.00037 9.30003C10.5004 9.10003 11.1004 10.2 11.1004 12ZM9.1004 10C8.5004 10 8.1004 10.5 8.1004 11.2C8.1004 11.9 8.5004 12.4 9.1004 12.4C9.8004 12.4 10.1004 11.9 10.1004 11.1C10.1004 10.4 9.7004 10 9.1004 10Z"
    fill="currentColor" />
  <path
    d="M19.4004 12.1001C19.4004 13.1001 19.2004 14.1 18.8004 15C18.4004 15.9 17.9004 16.7 17.2004 17.4C16.5004 18.1 15.7004 18.7001 14.8004 19.1001C13.9004 19.5001 12.9004 19.8 11.9004 19.8C10.7004 19.9 9.40038 19.5 8.20038 18.8C7.10038 18.1 6.2004 17.4001 5.6004 16.6001V15L2.90039 15.1001V19.5L4.50037 19.4V17.9C5.30037 18.8 6.30037 19.6 7.50037 20.3C8.90037 21.1 10.4004 21.5 11.9004 21.4C13.1004 21.3 14.3004 21 15.4004 20.5C16.5004 20 17.5004 19.3 18.3004 18.4C19.1004 17.5 19.8004 16.5 20.2004 15.4C20.7004 14.3 20.9004 13.1 20.9004 11.9V11.8L19.3004 11.9V12.1001H19.4004Z"
    fill="currentColor" />
</svg>
