<svg width="16" height="16" viewBox="0 0 16 16" fill="none" xmlns="http://www.w3.org/2000/svg">
  <path
    d="M14.2666 4.40002L11.6666 4.53337V3.66671L9.8666 1.93335L4.99993 2.20003V4.8667L2.2666 5.00004L2.33326 6.33337L3.93327 6.26668V12.4667C4.13327 12.6667 4.33327 12.8667 4.4666 13C4.79994 13.3334 5.13327 13.6 5.4666 13.9333C5.6666 14.0667 5.79993 14.2667 5.99993 14.4667L9.2666 14.2667L12.5333 14.0667V5.73336L14.2666 5.66671V4.40002ZM7.6666 13.0667H6.33326V7.40002H7.6666V13.0667ZM10.3333 12.9333H8.99993V7.26668H10.3333V12.9333ZM10.3333 4.60002L6.33326 4.80005V3.46672L9.33326 3.33337L10.3333 4.26668V4.60002Z"
    fill="currentColor" />
</svg>
