<svg width="24" height="24" viewBox="0 0 24 24" fill="none" xmlns="http://www.w3.org/2000/svg">
<path d="M18.3996 5.29999C17.9996 4.89999 17.4996 4.59999 17.0996 4.29999C16.8996 4.19999 16.5996 3.99996 16.3996 3.89996C15.0996 3.29996 13.6996 3 12.0996 3C7.09961 3.3 3.09961 7.5 3.09961 12.5C3.09961 17.5 7.09961 21.3 12.0996 21C13.6996 20.9 15.0996 20.4 16.3996 19.7C16.6996 19.5 16.8996 19.4 17.0996 19.2C17.5996 18.9 17.9996 18.5 18.3996 18C19.9996 16.3 20.9996 14 20.9996 11.5C20.9996 9 19.9996 6.89999 18.3996 5.29999ZM15.5996 16.8L11.0996 12.5V5.59998L13.0996 5.5V11.6L16.9996 15.3L15.5996 16.8Z" fill="#212322"/>
</svg>
