<svg width="48" height="48" viewBox="0 0 48 48" fill="none" xmlns="http://www.w3.org/2000/svg">
<g clip-path="url(#clip0_1389_6952)">
<path d="M46.9392 15.7277C46.4088 14.1296 45.8785 12.798 45.0829 11.4662C44.8177 10.9336 44.2873 10.1345 43.7569 9.60179C39.5138 3.47582 32.0884 -0.252969 23.8674 0.0133773C10.6077 0.812417 0 11.999 0 25.3163C0 38.6336 10.6077 48.7548 23.8674 47.9558C32.0884 47.4231 39.2486 42.8951 43.7569 36.2365C44.2873 35.7038 44.5525 34.9048 45.0829 34.1057C45.8785 32.774 46.4088 31.1758 46.9392 29.8441C47.7348 27.4469 48 25.05 48 22.6528C48 20.2557 47.7348 17.8585 46.9392 15.7277ZM26.7845 39.6989L21.4807 39.9654V34.6384L26.7845 34.372V39.6989ZM26.7845 29.0451L21.4807 29.3115V8.00378L26.7845 7.73733V29.0451Z" fill="#212322"/>
</g>
<defs>
<clipPath id="clip0_1389_6952">
<rect width="48" height="48" fill="white"/>
</clipPath>
</defs>
</svg>
