<svg width="16" height="16" viewBox="0 0 16 16" fill="none" xmlns="http://www.w3.org/2000/svg">
<path fill-rule="evenodd" clip-rule="evenodd" d="M8.00001 14C11.3137 14 14 11.3137 14 8C14 4.68629 11.3137 1.99999 8.00001 1.99999C4.6863 1.99999 2.00001 4.68629 2.00001 8C2.00001 11.3137 4.6863 14 8.00001 14ZM8.00001 14.6667C11.6819 14.6667 14.6667 11.6819 14.6667 8C14.6667 4.3181 11.6819 1.33333 8.00001 1.33333C4.31811 1.33333 1.33334 4.3181 1.33334 8C1.33334 11.6819 4.31811 14.6667 8.00001 14.6667Z" fill="currentColor"/>
<path fill-rule="evenodd" clip-rule="evenodd" d="M11.8142 6.23946L7.05841 11.1933L4.17807 8.09137L5.15513 7.1841L7.07456 9.25117L10.8523 5.31608L11.8142 6.23946Z" fill="currentColor"/>
</svg>
