<svg width="16" height="16" viewBox="0 0 16 16" fill="none" xmlns="http://www.w3.org/2000/svg">
<path d="M13.7336 5.93324C13.6003 5.53324 13.4669 5.19992 13.2669 4.86659C13.2003 4.73326 13.0669 4.53325 12.9336 4.39991C11.8669 2.86658 10.0003 1.93326 7.93359 1.99993C4.60026 2.19993 1.93359 4.99993 1.93359 8.33326C1.93359 11.6666 4.60026 14.1999 7.93359 13.9999C10.0003 13.8666 11.8003 12.7332 12.9336 11.0666C13.0669 10.9332 13.1336 10.7333 13.2669 10.5333C13.4669 10.1999 13.6003 9.7999 13.7336 9.46657C13.9336 8.86657 14.0003 8.2666 14.0003 7.6666C14.0003 7.0666 13.9336 6.46657 13.7336 5.93324ZM8.66693 11.9332L7.33359 11.9999V10.6666L8.66693 10.5999V11.9332ZM8.66693 9.26657L7.33359 9.33326V3.99993L8.66693 3.93324V9.26657Z" fill="currentColor"/>
</svg>
