<svg width="16" height="16" viewBox="0 0 16 16" fill="none" xmlns="http://www.w3.org/2000/svg">
  <path
    d="M9.45494 6.55106C10.2198 7.29613 10.1941 8.5629 9.39764 9.38048C8.60118 10.1981 7.33552 10.2568 6.57069 9.51177C5.80586 8.76669 5.83149 7.4999 6.62795 6.68232C7.42442 5.86475 8.69011 5.80598 9.45494 6.55106Z"
    fill="currentColor" />
  <path fill-rule="evenodd" clip-rule="evenodd"
    d="M1.33301 8.33341C2.39967 5.20007 4.99967 2.80007 7.99967 2.66674C11.0663 2.53341 13.6663 4.60007 14.6663 7.66674C13.5997 10.8001 10.9997 13.2001 7.99967 13.3334C4.99967 13.4667 2.39967 11.4001 1.33301 8.33341ZM4.99967 8.13337C4.99967 9.80004 6.33301 11.0667 7.99967 11.0001C9.66634 10.9334 10.9997 9.5334 10.9997 7.86673C10.9997 6.20006 9.66634 4.93341 7.99967 5.00007C6.33301 5.06674 4.99967 6.46671 4.99967 8.13337Z"
    fill="currentColor" />
</svg>
