<svg width="16" height="16" viewBox="0 0 16 16" fill="none" xmlns="http://www.w3.org/2000/svg">
  <path
    d="M13.2 4.3333C13.0666 4.19997 12.9333 3.99996 12.8666 3.86663C12.6 3.59996 12.3333 3.26662 12 3.06662C11.8667 2.93329 11.6666 2.79995 11.5333 2.73329C10.5333 2.13329 9.33332 1.79996 7.99999 1.86663C7.66666 1.86663 7.33331 1.9333 7.06664 1.99997C6.46664 2.1333 5.86665 2.3333 5.26665 2.66664C4.99999 2.79997 4.73331 2.99994 4.46664 3.13327C3.86664 3.53327 3.33332 4.06664 2.93332 4.66664C2.13332 5.7333 1.66666 7.13329 1.66666 8.53329C1.66666 9.86663 2.06664 11.0666 2.79998 12.0666C2.93331 12.2 3.06665 12.4 3.19998 12.5333C3.33332 12.6666 3.46665 12.7999 3.59999 12.9333C4.33332 13.5999 5.19998 14.0666 6.19998 14.3333C6.79998 14.4666 7.39997 14.5333 8.06664 14.5333C8.46664 14.5333 8.93332 14.4666 9.33332 14.3333C9.53332 14.2666 9.73332 14.1999 9.93332 14.1333C10.9333 13.7999 11.8 13.1999 12.5333 12.4666C12.8 12.1999 13 11.9333 13.2 11.5999C13.9333 10.5333 14.4 9.19994 14.4 7.79994C14.3333 6.4666 13.9333 5.26664 13.2 4.3333ZM6.46664 3.79994C6.73331 3.4666 7.13332 3.2666 7.53332 3.13327C7.66665 3.0666 7.79999 3.06662 7.99999 3.06662C8.46666 3.06662 8.86665 3.13329 9.19998 3.39995C9.79998 3.73329 10.1333 4.39994 10.1333 5.13327C10.1333 5.99994 9.59998 6.79996 8.79998 7.19996C8.53331 7.33329 8.26665 7.39995 7.93332 7.39995C7.79999 7.39995 7.66664 7.39995 7.46664 7.39995C6.93331 7.33329 6.39998 6.99996 6.13331 6.53329C5.93331 6.19996 5.73331 5.79997 5.73331 5.3333C5.79997 4.79997 6.06664 4.19994 6.46664 3.79994ZM12.6 9.73329C12.6 9.73329 12.6 9.79995 12.6 9.73329C12.5333 9.93329 12.4 10.1333 12.3333 10.3333C12.3333 10.4 12.2667 10.3999 12.2667 10.4666C12.1333 10.6666 12.0667 10.7999 11.9333 10.9333C11.9333 10.9333 11.9333 11 11.8666 11C11.7333 11.2 11.6 11.3333 11.4 11.4666C11.3333 11.5333 11.3333 11.5333 11.2667 11.5999C11.1333 11.7333 10.9333 11.8666 10.8 12C10.8 12 10.8 12 10.7333 12.0666C10.5333 12.2 10.4 12.3333 10.2 12.4C10.1333 12.4 10.1333 12.4666 10.0666 12.4666C9.86664 12.5333 9.66664 12.6666 9.46664 12.7333C9.46664 12.7333 9.46664 12.7333 9.39997 12.7333C9.19997 12.8 8.99997 12.8666 8.73331 12.9333C8.66664 12.9333 8.59999 12.9333 8.59999 13C8.39999 13.0666 8.13332 13.0666 7.93332 13.0666C7.73332 13.0666 7.46665 13.0666 7.26665 13.0666C7.19999 13.0666 7.13331 13.0666 7.13331 13.0666C6.93331 13.0666 6.66664 12.9999 6.46664 12.9333C6.26664 12.8666 6.06665 12.8 5.86665 12.7333C5.79998 12.7333 5.79997 12.6666 5.73331 12.6666C5.53331 12.6 5.33332 12.4666 5.19998 12.4C5.19998 12.4 5.19998 12.4 5.13331 12.4C4.99998 12.2666 4.79999 12.2 4.66666 12.0666C4.59999 12.0666 4.59998 12 4.53332 12C4.39998 11.8666 4.19997 11.7333 4.06664 11.5333C4.06664 11.5333 4.06666 11.4666 3.99999 11.4666C3.86666 11.3333 3.79999 11.2 3.66666 11C3.66666 10.9333 3.59999 10.9333 3.59999 10.8666C3.46665 10.6666 3.39999 10.4666 3.33332 10.3333C3.26666 10.2 3.19998 10.0666 3.19998 9.93328L7.99999 8.19996L12.8 9.39995C12.7333 9.46662 12.6667 9.59995 12.6 9.73329Z"
    fill="currentColor" />
</svg>
