<svg width="24" height="24" viewBox="0 0 24 24" fill="none" xmlns="http://www.w3.org/2000/svg">
<path fill-rule="evenodd" clip-rule="evenodd" d="M17.5 7.20001L17.4992 7.1992C16.9997 6.69969 16.6998 6.39981 16.3 6.09998L15.5 5.29999V3.29999L13.5 3.39996V5.39996L6.5 5.79999V3.79999L4.5 3.89996V5.89996L2.5 6V13.8C3.37842 14.6784 3.98893 15.2353 4.76298 15.9414C5.04635 16.1999 5.35164 16.4784 5.70001 16.8L17.5 16.2V7.20001ZM6.5 12.2V14.2L4.5 14.3V12.3L6.5 12.2ZM6.5 10.2L4.5 10.3V8.29999L6.5 8.20001V10.2ZM11 12V14L9 14.1V12.1L11 12ZM11 10L9 10.1V8.09998L11 8V10ZM15.5 11.8V13.8L13.5 13.9V11.9L15.5 11.8ZM15.5 9.79999L13.5 9.89996V7.89996L15.5 7.79999V9.79999Z" fill="currentColor"/>
<path d="M19.5 18.1V7.5L21.5 7.39996V20L6 20.8V18.8L19.5 18.1Z" fill="currentColor"/>
</svg>
