<svg width="32" height="32" viewBox="0 0 32 32" fill="none" xmlns="http://www.w3.org/2000/svg">
<path fill-rule="evenodd" clip-rule="evenodd" d="M4.33301 6.60018V22.6002L9.79972 16.8668L13.1331 19.9335L21.6663 10.8668L27.6663 16.6002V9.53344C26.4952 8.3623 25.6812 7.61978 24.6493 6.6784C24.2714 6.33375 23.8641 5.96221 23.3997 5.53345L4.33301 6.60018ZM10.9997 14.3335C9.53301 14.4668 8.33301 13.2668 8.33301 11.8001C8.33301 10.3335 9.53301 9.13349 10.9997 9.00016C12.4663 8.86683 13.6663 10.0668 13.6663 11.5334C13.6663 13.0001 12.4663 14.2002 10.9997 14.3335Z" fill="#212322"/>
<path d="M27.6663 25.4972L19.2612 25.9287L14.4664 21.4001L21.6663 13.9335L27.6663 19.6402V25.4972Z" fill="#212322"/>
<path d="M7.26636 22.4668L9.79972 19.8001L16.4664 26.0668L8.59969 26.4668C8.02807 25.8951 7.53303 25.4384 7.07353 25.0145C6.67559 24.6473 6.30431 24.3048 5.93302 23.9335L7.26636 22.4668Z" fill="#212322"/>
</svg>
