<svg width="24" height="24" viewBox="0 0 24 24" fill="none" xmlns="http://www.w3.org/2000/svg">
  <path
    d="M9.20001 13.4001C9.20001 11.9001 10.5 10.6001 12 10.5001C13.5 10.4001 14.8 11.6001 14.8 13.1001C14.8 14.6001 13.5 15.9001 12 16.0001C10.4 16.1001 9.20001 14.9001 9.20001 13.4001Z"
    fill="currentColor" />
  <path fill-rule="evenodd" clip-rule="evenodd"
    d="M15.5 6.30005L18.3 6.20004C18.95 6.80004 19.425 7.25004 19.9 7.70004C20.375 8.15004 20.85 8.60004 21.5 9.20004V19.5001L5.7 20.3C5.35167 19.9785 5.04642 19.7001 4.76308 19.4416C3.98898 18.7354 3.37847 18.1785 2.5 17.3V7.00006L8.5 6.70004V4.70004L15.5 4.30005V6.30005ZM7.8 13.5001C7.8 15.8001 9.7 17.6001 12 17.5001C14.3 17.4001 16.2 15.3001 16.2 13.0001C16.2 10.7001 14.3 8.80006 12 9.00006C9.7 9.20006 7.8 11.2001 7.8 13.5001Z"
    fill="currentColor" />
</svg>
