<svg width="24" height="24" viewBox="0 0 24 24" fill="none" xmlns="http://www.w3.org/2000/svg">
<path fill-rule="evenodd" clip-rule="evenodd" d="M3.25 4.95007V16.9501L7.35004 12.65L9.85004 14.9501L16.25 8.15002L20.75 12.4501V7.15002C19.8716 6.27167 19.2612 5.71477 18.4872 5.00874C18.2038 4.75025 17.8984 4.4716 17.55 4.15002L3.25 4.95007ZM8.25 10.7501C7.15 10.8501 6.25 9.95004 6.25 8.85004C6.25 7.75004 7.15 6.85006 8.25 6.75006C9.35 6.65006 10.25 7.55002 10.25 8.65002C10.25 9.75002 9.35 10.6501 8.25 10.7501Z" fill="currentColor"/>
<path d="M20.75 19.1229L14.4462 19.4465L10.85 16.05L16.25 10.4501L20.75 14.7301V19.1229Z" fill="currentColor"/>
<path d="M5.45001 16.85L7.35004 14.85L12.35 19.55L6.45001 19.85C6.0213 19.4213 5.65002 19.0788 5.30539 18.7608C5.00694 18.4855 4.72848 18.2285 4.45001 17.9501L5.45001 16.85Z" fill="currentColor"/>
</svg>
