<svg width="24" height="24" viewBox="0 0 24 24" fill="none" xmlns="http://www.w3.org/2000/svg">
  <path fill-rule="evenodd" clip-rule="evenodd"
    d="M11.0002 17.2799L10.3002 17.0599C10.0902 16.9899 9.88023 16.9199 9.69023 16.8199L9.03023 16.4999L7.30023 18.3199L6.71023 18.3399L5.63023 17.3199L7.72023 15.1199L7.45023 14.5099C7.38023 14.3399 7.31023 14.1799 7.25023 13.9999L7.01023 13.2699L3.98023 13.4299V11.4299L7.04023 11.2699L7.25023 10.6099C7.31023 10.4299 7.38023 10.2499 7.45023 10.0699L7.72023 9.42991L5.62023 7.43991L7.07023 5.90991L9.09023 7.81991L9.74023 7.43991C9.94023 7.31991 10.1502 7.21991 10.3702 7.12991L10.9802 6.86991V4.07991L12.9802 3.97991V6.72991L13.6802 6.94991C13.8902 7.01991 14.1002 7.08991 14.2902 7.18991L14.9502 7.50991L16.6802 5.68991L17.2602 5.66991L18.3402 6.68991L16.2502 8.88991L16.5302 9.49991C16.6002 9.65991 16.6702 9.82991 16.7302 10.0099L16.9702 10.7399L20.0002 10.5799V12.5799L16.9402 12.7399L16.7302 13.3999C16.6702 13.5799 16.6002 13.7599 16.5302 13.9399L16.2502 14.5799L18.3502 16.5699L16.9002 18.0999L14.8802 16.1899L14.2302 16.5699C14.0302 16.6899 13.8202 16.7899 13.6002 16.8799L12.9902 17.1399V19.9299L10.9902 20.0299V17.2799H11.0002ZM9.00023 9.14991V15.1499L15.0002 14.8399V8.83991L9.00023 9.14991Z"
    fill="currentColor" />
  <path
    d="M12.0002 5.01991V7.44991L13.3902 7.89991C13.3902 7.89991 13.4502 7.91991 13.4702 7.92991L10.7202 8.06991C10.7202 8.06991 10.7602 8.04991 10.7802 8.03991L12.0002 7.51991V5.01991ZM7.13023 7.31991L8.06024 8.19991H7.99023V8.27991L7.92023 8.20991L7.05023 7.38991L7.12023 7.30991M15.9902 10.9799L16.2502 11.7699H16.1902L16.0002 12.3899V10.9899M8.00023 11.6099V13.0099L7.74023 12.2299H7.80023L7.99023 11.6099M15.9902 15.7199L16.0602 15.7899L16.9302 16.6099L16.8602 16.6899L15.9302 15.8099H16.0002V15.7299M13.2802 15.9499C13.2802 15.9499 13.2402 15.9699 13.2202 15.9799L12.0002 16.4999V16.5699L10.6102 16.1199C10.6102 16.1199 10.5502 16.0999 10.5302 16.0899L13.2802 15.9499ZM14.0002 2.91991L10.0002 3.12991V6.20991C9.74023 6.31991 9.49023 6.43991 9.25023 6.57991L7.06023 4.49991L4.23023 7.47991L6.55023 9.67991C6.46023 9.88991 6.38023 10.0999 6.31023 10.3099L2.99023 10.4799V14.4799L6.31023 14.3099C6.38023 14.5199 6.46023 14.7199 6.55023 14.9199L4.23023 17.3599L6.33023 19.3499C6.88023 19.3399 7.19023 19.3299 7.74023 19.3099L9.25023 17.7299C9.49023 17.8499 9.74023 17.9399 10.0002 18.0199V21.0999L14.0002 20.8899V17.8099C14.2602 17.6999 14.5102 17.5799 14.7502 17.4399L16.9402 19.5199L19.7702 16.5399L17.4502 14.3399C17.5402 14.1299 17.6202 13.9199 17.6902 13.7099L21.0102 13.5399V9.53991L17.6902 9.70991C17.6202 9.49991 17.5402 9.29991 17.4502 9.09991L19.7702 6.65991L17.6702 4.66991C17.1202 4.67991 16.8102 4.68991 16.2602 4.70991L14.7502 6.28991C14.5102 6.16991 14.2602 6.07991 14.0002 5.99991V2.90991V2.91991ZM10.0002 14.1199V10.1199L14.0002 9.90991V13.9099L10.0002 14.1199Z"
    fill="currentColor" />
</svg>
