<svg width="24" height="24" viewBox="0 0 24 24" fill="none" xmlns="http://www.w3.org/2000/svg">
  <path
    d="M11.56 20.01C7.34004 20.01 4.04004 16.7 4.04004 12.47C4.04004 8.02998 7.65004 4.22998 12.09 3.99998C12.23 3.99998 12.38 3.98998 12.52 3.98998C16.74 3.98998 20.04 7.29998 20.04 11.53C20.04 15.97 16.43 19.77 11.99 20C11.85 20 11.7 20.01 11.56 20.01ZM10 14.75V18.75L14.01 18.54V14.55H13.87C13.89 14.27 14.29 13.76 14.76 13.17C15.64 12.1 16.45 11 16.45 9.37998C16.45 6.93998 14.83 5.35998 12.31 5.35998C12.2 5.35998 12.09 5.35998 11.98 5.35998C9.35004 5.49998 7.65004 7.32998 7.65004 10.03V11.77L11.32 11.58V10.03C11.32 8.84998 11.82 8.81998 12.06 8.80998H12.13C12.36 8.80998 12.7 8.80998 12.7 9.51998C12.7 10.05 12.48 10.47 11.76 11.31C10.85 12.39 10.28 13.31 10.23 14.55V14.75L10 14.76V14.75Z"
    fill="currentColor" />
  <path
    d="M16.53 6.33998C18.06 7.52998 19.03 9.38998 19.03 11.53C19.03 14.35 17.38 16.87 15 18.14V14.47C15.17 14.23 15.41 13.94 15.51 13.81C16.48 12.64 17.43 11.33 17.43 9.36998C17.43 8.19998 17.12 7.16998 16.52 6.33998M7.30004 7.14998C6.86004 7.96998 6.63004 8.94998 6.63004 10.03V12.82L8.73004 12.71L9.64004 12.66C9.49004 13.01 9.37004 13.38 9.29004 13.78L8.98004 13.8V18.5C6.63004 17.52 5.02004 15.22 5.02004 12.47C5.02004 10.42 5.90004 8.51998 7.29004 7.14998M12.5 2.97998C12.34 2.97998 12.18 2.97998 12.02 2.98998C7.06004 3.25998 3.04004 7.49998 3.04004 12.47C3.04004 17.44 6.81004 21.01 11.56 21.01C11.72 21.01 11.88 21.01 12.04 21C17.01 20.74 21.04 16.5 21.04 11.53C21.04 6.55998 17.26 2.98998 12.51 2.98998L12.5 2.97998ZM8.62004 10.71V10.02C8.62004 7.91998 9.85004 6.46998 12 6.34998C12.1 6.34998 12.19 6.34998 12.28 6.34998C14.26 6.34998 15.42 7.49998 15.42 9.36998C15.42 10.59 14.87 11.43 13.96 12.53C13.29 13.36 12.88 13.91 12.85 14.49L11.21 14.58C11.25 13.63 11.7 12.9 12.5 11.96C13.29 11.04 13.68 10.4 13.68 9.51998C13.68 8.44998 13.09 7.80998 12.11 7.80998C12.07 7.80998 12.03 7.80998 11.99 7.80998C10.93 7.86998 10.3 8.61998 10.3 10.03V10.63L8.63004 10.72L8.62004 10.71ZM10.98 17.69V15.7L12.99 15.59V17.58L10.98 17.69Z"
    fill="currentColor" />
</svg>
