<svg width="24" height="24" viewBox="0 0 24 24" fill="none" xmlns="http://www.w3.org/2000/svg">
<path d="M20.5998 8.80001C20.3998 8.20001 20.1998 7.70003 19.8998 7.20003C19.7998 7.00003 19.5998 6.70002 19.3998 6.50002C17.7998 4.20002 14.9998 2.79998 11.8998 2.89998C8.79981 3.09998 6.09981 4.80001 4.39981 7.30001C4.19981 7.50001 4.09981 7.79999 3.89981 8.09999C3.59981 8.59999 3.3998 9.20003 3.1998 9.70003C2.8998 10.6 2.7998 11.5 2.7998 12.4C2.7998 13.3 2.8998 14.2 3.1998 15.1C3.3998 15.7 3.59981 16.2 3.89981 16.7C3.99981 16.9 4.19981 17.2 4.39981 17.4C5.99981 19.7 8.79981 21.1 11.8998 21C14.9998 20.8 17.6998 19.1 19.3998 16.6C19.5998 16.4 19.6998 16.1 19.8998 15.8C20.1998 15.3 20.3998 14.7 20.5998 14.2C20.8998 13.3 20.9998 12.4 20.9998 11.5C20.9998 10.6 20.8998 9.70001 20.5998 8.80001ZM17.5998 12.2L15.6998 12.3L14.7998 15.5L13.2998 15.6L12.0998 11.3L10.8998 15.7L9.39981 15.8L8.49982 12.7L6.59982 12.8V11.3L8.09982 11.2L7.39981 8.89998L8.89981 8.80001L10.0998 13.1L11.2998 8.70003L12.7998 8.59999L13.9998 12.9L15.1998 8.50002L16.6998 8.39998L15.9998 10.7L17.4998 10.6V12.2H17.5998Z" fill="currentColor"/>
</svg>
