<svg width="32" height="32" viewBox="0 0 32 32" fill="none" xmlns="http://www.w3.org/2000/svg">
<path d="M12.2664 17.8668C12.2664 15.8668 13.9997 14.1335 15.9997 14.0001C17.9997 13.8668 19.733 15.4668 19.733 17.4668C19.733 19.4668 17.9997 21.2001 15.9997 21.3335C13.8664 21.4668 12.2664 19.8668 12.2664 17.8668Z" fill="currentColor"/>
<path fill-rule="evenodd" clip-rule="evenodd" d="M20.6663 8.40007L24.3997 8.26672C25.2663 9.06672 25.8997 9.66672 26.533 10.2667C27.1663 10.8667 27.7997 11.4667 28.6663 12.2667V26.0001L7.59967 27.0667C7.13523 26.638 6.72823 26.2667 6.35045 25.9221C5.31831 24.9806 4.5043 24.238 3.33301 23.0667V9.33342L11.333 8.93339V6.26672L20.6663 5.7334V8.40007ZM10.3997 18.0001C10.3997 21.0667 12.933 23.4667 15.9997 23.3334C19.0663 23.2001 21.5997 20.4001 21.5997 17.3334C21.5997 14.2667 19.0663 11.7334 15.9997 12.0001C12.933 12.2667 10.3997 14.9334 10.3997 18.0001Z" fill="currentColor"/>
</svg>
