<svg width="16" height="16" viewBox="0 0 16 16" fill="none" xmlns="http://www.w3.org/2000/svg">
<path d="M13.7329 5.86663C13.5996 5.46663 13.4662 5.13331 13.2662 4.79998C13.1995 4.66665 13.0662 4.46664 12.9329 4.3333C11.8662 2.79997 9.99955 1.86661 7.93288 1.93328C5.86622 2.06661 4.06622 3.19996 2.93288 4.86663C2.79955 4.99996 2.73288 5.19995 2.59955 5.39995C2.39955 5.73329 2.26621 6.13331 2.13287 6.46665C1.93287 7.06665 1.86621 7.66661 1.86621 8.26661C1.86621 8.86661 1.93287 9.46662 2.13287 10.0666C2.26621 10.4666 2.39955 10.8 2.59955 11.1333C2.66622 11.2666 2.79955 11.4666 2.93288 11.5999C3.99955 13.1333 5.86622 14.0666 7.93288 14C9.99955 13.8666 11.7995 12.7333 12.9329 11.0666C13.0662 10.9333 13.1329 10.7333 13.2662 10.5333C13.4662 10.2 13.5996 9.79998 13.7329 9.46665C13.9329 8.86665 13.9996 8.26664 13.9996 7.66664C13.9996 7.06664 13.9329 6.46663 13.7329 5.86663ZM11.7329 8.13331L10.4662 8.19996L9.86621 10.3333L8.86621 10.4L8.06622 7.5333L7.26622 10.4666L6.26622 10.5333L5.66622 8.46665L4.39956 8.5333V7.5333L5.39956 7.46665L4.93288 5.93328L5.93288 5.86663L6.73289 8.73329L7.53288 5.79998L8.53288 5.73329L9.33289 8.59995L10.1329 5.66664L11.1329 5.59995L10.6662 7.13331L11.6662 7.06662V8.13331H11.7329Z" fill="currentColor"/>
</svg>
