<svg width="32" height="32" viewBox="0 0 32 32" fill="none" xmlns="http://www.w3.org/2000/svg">
  <path
    d="M25.3333 23.4667C27.2 20.8 27.0667 17.0667 24.6667 14.8C23.3333 13.6 21.6 13.0667 20 13.0667C18.4 13.0667 16.5333 13.8667 15.3333 15.2C12.6667 18 12.6667 22.1334 15.3333 24.6667C15.6 24.9334 15.8667 25.0667 16.1333 25.2C16.4 25.3333 16.6667 25.4666 16.9334 25.6C17.0667 25.6 17.0667 25.7334 17.2 25.7334C17.4667 25.8667 17.6 25.8667 17.8667 26C18 26 18.2667 26.1333 18.4 26.1333C18.5334 26.1333 18.8 26.2666 18.9333 26.2666C19.3333 26.2666 19.7333 26.4 20.1333 26.2666C20.5333 26.2666 20.8 26.1333 21.2 26.1333C22.2667 25.8667 23.2 25.4667 24 24.8L28.6667 29.2L30.1333 27.7334L25.3333 23.4667ZM23.3333 22.9333C22.4 23.8666 21.3333 24.4 20 24.5333C18.8 24.5333 17.6 24.1334 16.6667 23.3334C15.7333 22.5334 15.3333 21.3333 15.3333 20.1333C15.3333 18.9333 15.8667 17.7333 16.6667 16.8C17.6 15.8667 18.6667 15.3333 20 15.2C21.3333 15.0667 22.4 15.6 23.3333 16.4C24.2667 17.2 24.6667 18.4 24.6667 19.6C24.6667 20.8 24.2667 22 23.3333 22.9333Z"
    fill="currentColor" />
  <path fill-rule="evenodd" clip-rule="evenodd"
    d="M2.66667 3.33337V17.7334C3.8379 18.9046 4.6519 19.6471 5.68398 20.5886C6.06172 20.9332 6.46896 21.3047 6.93335 21.7334L10.8 21.4667C10.4 18.8 11.2 15.8667 13.2 13.7334L5.33333 14.1333V12.1333L15.8667 11.6C17.2 10.9333 18.6667 10.4 20 10.4H21.3333V6.53333C20.162 5.36196 19.3479 4.61938 18.3157 3.67776C17.938 3.33319 17.5311 2.96196 17.0667 2.53333L2.66667 3.33337ZM18.6667 8.26664L5.33333 8.93331V6.93331L18.6667 6.26664V8.26664Z"
    fill="currentColor" />
  <path
    d="M13.4667 26.8C13.0667 26.4 12.6667 26 12.4 25.6L6.93335 25.8667V28.5333L15.2 28.1333C15.0446 28.0167 14.8777 27.9001 14.7062 27.7802C14.2893 27.4888 13.8445 27.1779 13.4667 26.8Z"
    fill="currentColor" />
  <path d="M24 11.0667V6.53333H26.6667V12.8C25.8667 12 24.9333 11.4667 24 11.0667Z" fill="currentColor" />
</svg>
