<svg width="16" height="16" viewBox="0 0 16 16" fill="none" xmlns="http://www.w3.org/2000/svg">
<path d="M14.2663 13.3333L10.3329 9.66667C10.9329 8.8 11.3329 7.8 11.3329 6.66667C11.3329 3.93333 9.13294 1.86667 6.46628 2C3.73294 2.13333 1.59961 4.46666 1.59961 7.13333C1.59961 9.8 3.79961 11.9333 6.46628 11.8C7.59961 11.7333 8.59961 11.3333 9.39961 10.6667L13.3329 14.3333L14.2663 13.3333ZM2.86627 7.06667C2.86627 5.13333 4.46627 3.4 6.39961 3.33333C8.33294 3.2 9.93294 4.73333 9.93294 6.73333C9.93294 8.73333 8.33294 10.4 6.39961 10.4667C4.46627 10.5333 2.86627 9.06667 2.86627 7.06667Z" fill="currentColor"/>
</svg>
