<svg width="24" height="24" viewBox="0 0 24 24" fill="none" xmlns="http://www.w3.org/2000/svg">
<path d="M21.4004 6.59998L17.5004 6.79999V5.5L14.8004 2.89996L7.50038 3.29999V7.29999L3.40039 7.5L3.50038 9.5L5.90039 9.39996V18.7C6.20039 19 6.50039 19.3 6.70039 19.5C7.20039 20 7.70039 20.4 8.20039 20.9C8.50039 21.1 8.70038 21.4 9.00038 21.7L13.9004 21.4L18.8004 21.1V8.59998L21.4004 8.5V6.59998ZM11.5004 19.6H9.50038V11.1H11.5004V19.6ZM15.5004 19.4H13.5004V10.9H15.5004V19.4ZM15.5004 6.89996L9.50038 7.20001V5.20001L14.0004 5L15.5004 6.39996V6.89996Z" fill="currentColor"/>
</svg>
