<svg width="24" height="24" viewBox="0 0 24 24" fill="none" xmlns="http://www.w3.org/2000/svg">
<path d="M3.49023 7.30002V9.00002L5.88023 8.87002V19.02C6.28023 19.4 6.49023 19.6 6.89023 19.98L8.51023 19.9V4.56002L6.68023 4.66002C6.19023 6.62002 5.42023 7.14002 3.49023 7.30002Z" fill="currentColor"/>
<path d="M8.51023 4.56002L6.68023 4.66002C6.19023 6.62002 5.42023 7.14002 3.49023 7.30002V9.00002L5.88023 8.87002V19.02C6.28023 19.4 6.49023 19.6 6.89023 19.98L8.51023 19.9V4.56002Z" fill="currentColor"/>
<path d="M19.0002 4.03002L18.1802 4.07002C17.6902 6.03002 16.9202 6.55002 14.9902 6.71002V8.41002L17.3802 8.28002V19.44L20.0002 19.3V4.98002C19.6002 4.60002 19.3902 4.40002 18.9902 4.02002L19.0002 4.03002Z" fill="currentColor"/>
<path d="M19.0002 4.03002L18.1802 4.07002C17.6902 6.03002 16.9202 6.55002 14.9902 6.71002V8.41002L17.3802 8.28002V19.44L20.0002 19.3V4.98002C19.6002 4.60002 19.3902 4.40002 18.9902 4.02002L19.0002 4.03002Z" fill="currentColor"/>
<path d="M11.0002 10.03L13.0002 9.92002V7.92002L11.0002 8.03002V10.03Z" fill="currentColor"/>
<path d="M13.0002 7.92002L11.0002 8.03002V10.03L13.0002 9.92002V7.92002Z" fill="currentColor"/>
<path d="M11.0002 16.03L13.0002 15.92V13.92L11.0002 14.03V16.03Z" fill="currentColor"/>
<path d="M13.0002 13.92L11.0002 14.03V16.03L13.0002 15.92V13.92Z" fill="currentColor"/>
</svg>
