<svg width="16" height="16" viewBox="0 0 16 16" fill="none" xmlns="http://www.w3.org/2000/svg">
  <path
    d="M7.66872 4.99585C7.54987 5.01401 7.4416 5.03055 7.33334 5.06664L6.53335 4.19998L5.46668 3.19998C6.26668 2.79998 7.13334 2.59998 8 2.53332C11 2.39998 13.6 4.46665 14.6667 7.53332C14.2667 8.66665 13.7333 9.6 13.0667 10.4667L12.1333 9.60001L10.9333 8.46667C11 8.26667 11 8 11 7.8C11 6.13333 9.66667 4.86667 8 4.93334C7.87769 4.96392 7.76941 4.98046 7.66872 4.99585Z"
    fill="currentColor" />
  <path fill-rule="evenodd" clip-rule="evenodd"
    d="M12.2 11.5333L13.3333 12.7333L12.4 13.7333L11 12.4C10.1333 12.9333 9.06667 13.2667 8 13.3333C5 13.4667 2.4 11.4 1.33334 8.33333C1.73334 7.06667 2.4 5.93333 3.26666 5L2.06667 3.86666L3 2.86666L4.26666 4.06665L5.20001 5L6.06667 5.80001L6.80001 6.46667L9.6 9.13334L10.3333 9.80001L12.2 11.5333ZM5 8.13334C5 9.80001 6.33334 11.0667 8 11C8.46667 10.9333 8.86668 10.8 9.20001 10.6667L8.40001 9.93335C8.33334 9.93335 8.26667 9.95001 8.2 9.96667C8.13334 9.98334 8.06667 10 8 10C6.86667 10.0667 6 9.26667 6 8.13334C6 8.02324 6.02021 7.93334 6.03837 7.85252C6.0532 7.78653 6.06667 7.7266 6.06667 7.66667L5.26666 6.93335C5.06666 7.26668 5 7.66668 5 8.13334Z"
    fill="currentColor" />
</svg>
