<svg width="24" height="24" viewBox="0 0 24 24" fill="none" xmlns="http://www.w3.org/2000/svg">
<path fill-rule="evenodd" clip-rule="evenodd" d="M14.0004 5.90001C14.0004 3.70001 15.8004 1.8 18.0004 1.7C20.3004 1.6 22.0004 3.30001 22.0004 5.50001C22.0004 7.70001 20.2004 9.6 18.0004 9.7C15.8004 9.8 14.0004 8.10001 14.0004 5.90001ZM15.6004 6.10002L18.0004 8.40001L20.4004 5.90001L19.7004 5.2L18.5004 6.50001V3.00001L17.5004 3.10002V6.60002L16.3004 5.40001L15.6004 6.10002Z" fill="currentColor"/>
<path d="M5.50039 18.4L15.5004 17.9H15.4004V11.4C16.0004 11.6 16.7004 11.8 17.4004 11.8V21.8L6.60039 22.4C6.25205 22.0784 5.94678 21.8 5.66344 21.5415C4.88935 20.8354 4.27884 20.2784 3.40039 19.4V2.60001L4.60039 2.5L13.5004 2C12.6004 3.1 12.0004 4.60001 12.0004 6.10001L5.50039 6.39999V18.4Z" fill="currentColor"/>
</svg>
