<svg width="24" height="24" viewBox="0 0 24 24" fill="none" xmlns="http://www.w3.org/2000/svg">
  <path
    d="M19.9998 15.5V13.6L17.9998 11.7V7L13.9998 3.9L12.9998 4V2H10.9998V4.10001H9.99979L8.7998 5.10001L10.2998 6.5L15.9998 11.8L19.9998 15.5Z"
    fill="currentColor" />
  <path
    d="M7.2998 6.4L8.7998 7.8L20.4998 18.5L19.0998 20L16.5998 17.7L7.09979 18.2C6.75162 17.8786 6.44649 17.6003 6.16326 17.3419C5.3891 16.6357 4.77832 16.0785 3.89981 15.2V14.4L5.89981 12.3V7.9L3.7998 6L5.1998 4.5L7.2998 6.4Z"
    fill="currentColor" />
  <path
    d="M9.49982 20.3V20.1C9.49982 20 9.49982 19.8 9.39984 19.8L14.3998 19.5C14.3998 19.9 14.2998 20.2 14.1999 20.4999C14.0999 20.7999 13.8998 21.1 13.6998 21.3C13.4998 21.6 13.1998 21.8 12.8998 21.9C12.5998 22 12.1998 22.1 11.8998 22.1H11.3998C11.3498 22.1 11.2998 22.075 11.2498 22.05C11.1998 22.025 11.1498 22 11.0998 22C11.0423 21.9425 11.0179 21.9181 10.9885 21.9077C10.9668 21.9 10.9423 21.9 10.8998 21.9C10.8998 21.9 10.8998 21.9 10.8998 21.9C10.8006 21.9 10.7013 21.8015 10.6998 21.8C10.6498 21.8 10.6248 21.775 10.5998 21.75C10.5748 21.725 10.5498 21.7 10.4998 21.7L10.2998 21.5C10.2959 21.5 10.2921 21.4999 10.2884 21.4996C10.1931 21.4926 10.1013 21.4015 10.0998 21.4L9.89984 21.2C9.89984 21.15 9.87484 21.125 9.84984 21.1C9.82484 21.075 9.79984 21.05 9.79984 21C9.79984 21 9.69983 20.9 9.69983 20.8C9.69983 20.75 9.67483 20.725 9.64983 20.7C9.62482 20.675 9.59982 20.65 9.59982 20.6C9.59982 20.55 9.57482 20.5 9.54982 20.45C9.52482 20.4 9.49982 20.35 9.49982 20.3Z"
    fill="currentColor" />
  <path d="M10.0998 21.4C10.0998 21.4 10.0999 21.4 10.0998 21.4V21.4Z" fill="currentColor" />
</svg>
